<svg width="45" height="50" viewBox="0 0 45 50" fill="none" xmlns="http://www.w3.org/2000/svg">
<path d="M28.0519 9.9354C27.676 9.66687 27.1927 9.77428 26.9241 10.0965L20.5331 19.0117L17.6867 14.9837C17.4182 14.6078 16.9349 14.5541 16.5589 14.8226C16.183 15.0911 16.1293 15.5745 16.3978 15.9504L19.9424 20.8914C20.1035 21.1062 20.3183 21.2136 20.5869 21.2136C20.8554 21.2136 21.0702 21.1062 21.2313 20.8914L28.2668 11.0632C28.4816 10.6873 28.4279 10.2039 28.0519 9.9354Z" fill="white"/>
<path d="M15.2164 30.6657C12.7996 28.5175 11.9403 27.7119 11.5107 27.336C11.081 26.9063 11.081 26.9063 10.3829 26.3693C9.36246 25.51 8.44947 25.2415 7.75129 25.3489C7.21424 21.9654 5.65677 11.7613 5.17342 10.3113C4.85119 9.23716 3.88449 8.59269 2.81037 8.70011C1.78996 8.80752 0.71585 9.6131 0.608438 11.2243C0.447321 13.3725 0.0713811 24.1673 0.0176754 27.336C-0.143442 30.8806 0.823261 31.9547 1.84367 33.1362C1.95108 33.2436 2.00479 33.351 2.1122 33.4584C3.29372 34.8548 5.97901 37.8086 8.01982 39.742C9.6847 41.3532 9.6847 41.7828 9.73841 42.9643V43.394C9.79211 44.9515 9.41617 49.0331 9.41617 49.0868C9.41617 49.3016 9.46988 49.5164 9.63099 49.7313C9.79211 49.8924 10.0069 49.9998 10.2218 49.9998L18.4387 49.785C18.8684 49.785 19.2443 49.409 19.2443 48.9794C19.2443 47.6904 19.2443 46.4552 19.298 45.2737C19.4054 39.2049 19.5128 34.4788 15.2164 30.6657ZM17.6331 48.1738L11.081 48.3349C11.1348 47.4756 11.2422 46.1867 11.2959 45.0052L17.6868 44.4681C17.6868 44.7366 17.6868 44.9514 17.6868 45.22C17.6868 46.133 17.6331 47.1534 17.6331 48.1738ZM17.7406 42.8569L11.3496 43.394V43.3403V42.9643C11.3496 41.4069 11.2422 40.5476 9.14764 38.6142C7.10683 36.6808 4.47525 33.7807 3.34743 32.438C3.24002 32.3306 3.13261 32.2232 3.0789 32.1158C2.1659 31.0954 1.52143 30.3435 1.62885 27.3897C1.73626 23.6303 2.05849 13.3725 2.21961 11.3854C2.27331 10.6872 2.70296 10.4187 3.02519 10.365H3.0789C3.24002 10.365 3.56225 10.4187 3.66966 10.8483C4.0456 12.1373 5.65677 22.2339 6.30124 26.423C5.9253 27.1212 6.03271 28.1416 6.51606 29.1083C7.64388 31.3102 9.52358 34.3714 9.63099 34.5325C9.84582 34.9085 10.3829 35.0159 10.7588 34.8011C11.1348 34.5863 11.2422 34.0492 11.0273 33.6733C11.0273 33.6195 9.04023 30.5046 8.01982 28.4101C7.69759 27.7656 7.69759 27.2823 7.805 27.1212L7.85871 27.0675C8.01982 26.96 8.55688 26.96 9.41617 27.7119C10.0606 28.249 10.0606 28.249 10.4903 28.6249C10.9199 29.0009 11.8329 29.8064 14.2497 31.9547C17.3646 34.6937 17.7406 38.2382 17.7406 42.8569Z" fill="white"/>
<path d="M44.6471 27.2823C44.5397 24.1673 44.2175 13.3725 44.0564 11.1706C43.949 9.6131 42.8212 8.80751 41.8545 8.64639C40.7803 8.53898 39.8136 9.18345 39.4914 10.2576C39.0618 11.7076 37.4506 21.9117 36.9135 25.2952C36.2153 25.2414 35.3024 25.4563 34.2819 26.3156C33.5838 26.8526 33.5838 26.8526 33.1541 27.2823C32.7245 27.6582 31.8115 28.4638 29.4484 30.612C25.152 34.4251 25.2594 39.1512 25.3668 45.1663C25.3668 46.3478 25.4205 47.583 25.4205 48.872C25.4205 49.3016 25.7427 49.6775 26.2261 49.6775L34.4431 49.8924C34.6579 49.8924 34.8727 49.785 35.0338 49.6238C35.1949 49.4627 35.2486 49.2479 35.2486 48.9794C35.2486 48.9257 34.9264 44.844 34.9264 43.2866V42.8569C34.9264 41.6754 34.9264 41.2457 36.645 39.6346C38.6858 37.6475 41.4248 34.6937 42.5526 33.351C42.66 33.2436 42.7137 33.1362 42.8211 33.0288C43.7879 31.9547 44.7546 30.8805 44.6471 27.2823ZM26.978 48.1738C26.978 47.1534 26.978 46.1867 26.9243 45.22C26.9243 44.9514 26.9243 44.7366 26.9243 44.4681L33.3152 45.0051C33.3689 46.133 33.4764 47.4756 33.5301 48.3349L26.978 48.1738ZM41.5859 32.0621C41.4785 32.1695 41.3711 32.2769 41.3174 32.3843C40.1896 33.7269 37.5043 36.6271 35.5172 38.5605C33.4764 40.5476 33.3689 41.3532 33.3152 42.9106V43.2866V43.3403L26.9243 42.8032C26.8706 38.1845 27.3002 34.6937 30.4688 31.7935C32.8856 29.6453 33.7986 28.8397 34.2282 28.4638C34.6579 28.0879 34.6579 28.0879 35.3024 27.5508C36.1616 26.8526 36.6987 26.7989 36.8598 26.9063C36.8598 26.9063 36.8598 26.96 36.9135 26.96C37.0209 27.1212 37.0209 27.6045 36.6987 28.249C35.6246 30.3972 33.6912 33.5121 33.6912 33.5121C33.4764 33.8881 33.5838 34.3714 33.9597 34.6399C34.3357 34.8548 34.819 34.7474 35.0875 34.3714C35.1949 34.264 37.0746 31.1491 38.2025 28.9471C38.6858 27.9267 38.7932 26.96 38.4173 26.2619C39.0618 22.0728 40.6729 11.9761 41.0489 10.6872C41.21 10.2039 41.5859 10.2039 41.6933 10.2039C42.0156 10.2576 42.4452 10.5261 42.4989 11.2243C42.66 13.2114 42.9823 23.4692 43.0897 27.2286C43.0897 30.2898 42.4452 31.0417 41.5859 32.0621Z" fill="white"/>
<path d="M34.7117 7.25027C34.7117 6.92803 34.4969 6.6058 34.1746 6.49839C29.8245 4.94092 27.1929 3.65199 22.8427 0.161117C22.5742 -0.0537057 22.1446 -0.0537057 21.8223 0.161117C17.4722 3.65199 14.7869 4.94092 10.4367 6.49839C10.1145 6.6058 9.89966 6.92803 9.89966 7.25027C9.89966 15.5746 11.7794 21.536 15.4313 24.9194C18.224 27.4973 21.2316 27.7121 22.1446 27.7121C22.252 27.7121 22.3057 27.7121 22.3594 27.7121C22.8427 27.7121 26.1188 27.7658 29.2337 24.9194C32.8857 21.5897 34.7117 15.6284 34.7117 7.25027ZM22.4131 26.1547H22.3594H22.3057C22.1983 26.1547 19.2982 26.3158 16.5055 23.7379C13.3368 20.7841 11.6182 15.2524 11.5108 7.84103C15.5388 6.39098 18.3315 4.99463 22.3594 1.82599C26.3873 4.99463 29.1263 6.33727 33.1005 7.84103C33.0468 15.3061 31.3282 20.7841 28.1596 23.7379C25.4206 26.3158 22.5205 26.1547 22.4131 26.1547Z" fill="white"/>
</svg>
