<svg width="52" height="41" viewBox="0 0 52 41" fill="none" xmlns="http://www.w3.org/2000/svg">
<path fill-rule="evenodd" clip-rule="evenodd" d="M43.5645 37.4299C41.3551 37.4299 39.5618 35.6395 39.5618 33.4273C39.5618 31.2179 41.3551 29.4275 43.5645 29.4275C45.7738 29.4275 47.5671 31.2179 47.5671 33.4273C47.5671 35.6395 45.7738 37.4299 43.5645 37.4299ZM25.4535 11.4456C23.2441 11.4456 21.4537 9.6523 21.4537 7.44295C21.4537 5.23359 23.2441 3.44315 25.4535 3.44315C27.6657 3.44315 29.4562 5.23359 29.4562 7.44295C29.4562 9.6523 27.6657 11.4456 25.4535 11.4456ZM29.4562 33.4273C29.4562 35.6395 27.6657 37.4299 25.4535 37.4299C23.2441 37.4299 21.4537 35.6395 21.4537 33.4273C21.4537 31.2179 23.2441 29.4275 25.4535 29.4275C27.6657 29.4275 29.4562 31.2179 29.4562 33.4273ZM11.4456 33.4273C11.4456 35.6395 9.6523 37.4299 7.44295 37.4299C5.23359 37.4299 3.44315 35.6395 3.44315 33.4273C3.44315 31.2179 5.23359 29.4275 7.44295 29.4275C9.6523 29.4275 11.4456 31.2179 11.4456 33.4273ZM45.2832 26.1938V20.438C45.2832 19.4854 44.5113 18.7164 43.5616 18.7164H27.3214V14.6334C30.5293 13.8013 32.9051 10.9148 32.9051 7.44868C32.9051 3.33412 29.5709 0 25.4564 0C21.3418 0 18.0077 3.33412 18.0077 7.44868C18.0077 11.021 20.5241 13.9964 23.8783 14.7223V18.7164H7.44868C6.49895 18.7164 5.72711 19.4854 5.72711 20.438V26.1938C2.44464 26.9742 0 29.9066 0 33.4244C0 37.539 3.33412 40.8731 7.44868 40.8731C11.5633 40.8731 14.8974 37.539 14.8974 33.4244C14.8974 29.9066 12.4499 26.9742 9.17026 26.1938V22.1595H23.8783V26.1507C20.5241 26.8767 18.0077 29.8521 18.0077 33.4244C18.0077 37.539 21.3418 40.8731 25.4564 40.8731C29.5709 40.8731 32.9051 37.539 32.9051 33.4244C32.9051 29.9583 30.5293 27.0718 27.3214 26.2397V22.1595H41.8372V26.1938C38.5576 26.9742 36.1101 29.9066 36.1101 33.4244C36.1101 37.539 39.447 40.8731 43.5616 40.8731C47.6733 40.8731 51.0074 37.539 51.0074 33.4244C51.0074 29.9066 48.5628 26.9742 45.2832 26.1938Z" fill="white"/>
</svg>
