<svg width="50" height="50" viewBox="0 0 50 50" fill="none" xmlns="http://www.w3.org/2000/svg">
<path d="M1.03008 0.00124897C0.747542 0.0278772 0.485187 0.159223 0.294614 0.369506C0.104041 0.57979 -0.000958581 0.853792 0.000264424 1.13758V7.95556C-0.00186382 8.10613 0.0259564 8.25562 0.0821084 8.39536C0.13826 8.53509 0.221624 8.66227 0.327356 8.76951C0.433087 8.87674 0.559076 8.96191 0.698003 9.02003C0.83693 9.07815 0.986022 9.10808 1.13662 9.10808C1.28721 9.10808 1.4363 9.07815 1.57523 9.02003C1.71416 8.96191 1.84015 8.87674 1.94588 8.76951C2.05161 8.66227 2.13497 8.53509 2.19112 8.39536C2.24728 8.25562 2.2751 8.10613 2.27297 7.95556V3.87185L8.86026 10.459C8.9656 10.5674 9.0915 10.6536 9.23057 10.7128C9.36965 10.7719 9.51912 10.8026 9.67023 10.8033C9.82135 10.8039 9.97107 10.7744 10.1107 10.7165C10.2502 10.6586 10.3769 10.5734 10.4831 10.466C10.5894 10.3585 10.6731 10.231 10.7295 10.0908C10.7859 9.95058 10.8137 9.80052 10.8114 9.64942C10.8091 9.49832 10.7767 9.34921 10.716 9.2108C10.6554 9.07239 10.5678 8.94748 10.4583 8.84334L3.88872 2.27391H7.95473C8.10531 2.27604 8.25481 2.24822 8.39454 2.19207C8.53428 2.13591 8.66146 2.05254 8.7687 1.94682C8.87593 1.84109 8.96109 1.71509 9.01921 1.57616C9.07733 1.43724 9.10726 1.28817 9.10726 1.13758C9.10726 0.986987 9.07733 0.837882 9.01921 0.698958C8.96109 0.560033 8.87593 0.434037 8.7687 0.328307C8.66146 0.222578 8.53428 0.139243 8.39454 0.0830916C8.25481 0.0269407 8.10531 -0.000879523 7.95473 0.00124897H1.13662C1.10113 -0.000416325 1.06558 -0.000416325 1.03008 0.00124897ZM25 0.00124897C21.2479 0.00124897 18.1819 3.06721 18.1819 6.81923C18.1819 8.58248 18.8679 10.1869 19.9752 11.4001C18.0126 11.6378 16.4774 13.3189 16.4774 15.3417V32.3868C16.4774 34.1747 17.6838 35.7096 19.3183 36.2041V46.5909C19.3183 47.455 19.5769 48.2482 20.064 48.8813C20.551 49.5145 21.314 49.9999 22.1946 49.9999H27.8054C28.6861 49.9999 29.449 49.5145 29.936 48.8813C30.4231 48.2482 30.6818 47.455 30.6818 46.5909V36.2041C32.3163 35.7096 33.5227 34.1747 33.5227 32.3868V15.3417C33.5227 13.3189 31.9874 11.6378 30.0248 11.4001C31.1321 10.1869 31.8181 8.58248 31.8181 6.81923C31.8181 3.06721 28.7521 0.00124897 25 0.00124897ZM41.9388 0.00124897C41.7895 0.00819796 41.6431 0.0444766 41.5078 0.108026C41.3726 0.171575 41.2512 0.261151 41.1506 0.371622C41.05 0.482093 40.9721 0.611275 40.9215 0.751843C40.8708 0.892411 40.8483 1.04159 40.8553 1.19085C40.8623 1.3401 40.8986 1.48652 40.9622 1.62173C41.0258 1.75695 41.1154 1.87832 41.2259 1.97889C41.3365 2.07947 41.4657 2.15726 41.6063 2.20788C41.7469 2.2585 41.896 2.28095 42.0453 2.27391H46.1113L39.5418 8.84334C39.4323 8.94748 39.3446 9.07239 39.284 9.2108C39.2234 9.34921 39.1909 9.49833 39.1886 9.64942C39.1863 9.80052 39.2141 9.95058 39.2705 10.0908C39.3269 10.231 39.4107 10.3585 39.5169 10.466C39.6232 10.5734 39.7498 10.6586 39.8894 10.7165C40.029 10.7744 40.1787 10.8039 40.3298 10.8033C40.4809 10.8026 40.6304 10.7719 40.7695 10.7128C40.9085 10.6536 41.0344 10.5674 41.1398 10.459L47.7271 3.87185V7.95556C47.7249 8.10613 47.7527 8.25566 47.8089 8.39539C47.865 8.53512 47.9484 8.66231 48.0541 8.76954C48.1599 8.87678 48.2859 8.96191 48.4248 9.02003C48.5637 9.07815 48.7128 9.10808 48.8634 9.10808C49.014 9.10808 49.1631 9.07815 49.302 9.02003C49.441 8.96191 49.5669 8.87678 49.6727 8.76954C49.7784 8.66231 49.8618 8.53512 49.9179 8.39539C49.9741 8.25566 50.0019 8.10613 49.9998 7.95556V1.13758C49.9997 0.836214 49.88 0.547195 49.6669 0.334099C49.4538 0.121002 49.1648 0.00127906 48.8634 0.00124897H42.0453C42.0098 -0.000416325 41.9743 -0.000416325 41.9388 0.00124897ZM25 2.27391C27.5238 2.27391 29.5454 4.29545 29.5454 6.81923C29.5454 9.34301 27.5238 11.3646 25 11.3646C22.4762 11.3646 20.4546 9.34301 20.4546 6.81923C20.4546 4.29545 22.4762 2.27391 25 2.27391ZM20.4546 13.6372H25H29.5454C30.5094 13.6372 31.25 14.3778 31.25 15.3417V32.3868C31.25 33.3507 30.5094 34.0912 29.5454 34.0912H20.4546C19.4906 34.0912 18.7501 33.3507 18.7501 32.3868V15.3417C18.7501 14.3778 19.4906 13.6372 20.4546 13.6372ZM5.53998 19.3011C5.28955 19.3373 5.05835 19.456 4.88303 19.6385L0.337619 24.1838C0.2308 24.2895 0.146 24.4153 0.0881258 24.554C0.0302515 24.6926 0.000452179 24.8414 0.000452179 24.9917C0.000452179 25.142 0.0302515 25.2907 0.0881258 25.4294C0.146 25.568 0.2308 25.6939 0.337619 25.7995L4.88303 30.3449C4.98838 30.4532 5.11427 30.5394 5.25334 30.5985C5.3924 30.6575 5.54185 30.6882 5.69294 30.6889C5.84403 30.6895 5.99373 30.66 6.13327 30.6021C6.27282 30.5442 6.39942 30.459 6.50566 30.3516C6.61191 30.2442 6.69567 30.1166 6.75204 29.9765C6.80841 29.8363 6.83626 29.6863 6.83397 29.5352C6.83167 29.3841 6.79928 29.235 6.73867 29.0966C6.67807 28.9582 6.59048 28.8333 6.48102 28.7292L3.87096 26.1369H13.0683C13.2189 26.139 13.3684 26.1112 13.5081 26.055C13.6478 25.9989 13.7749 25.9155 13.8822 25.8098C13.9894 25.704 14.0745 25.5781 14.1326 25.4392C14.1907 25.3002 14.2206 25.1512 14.2206 25.0006C14.2206 24.85 14.1907 24.701 14.1326 24.562C14.0745 24.4231 13.9894 24.2971 13.8822 24.1914C13.7749 24.0857 13.6478 24.0023 13.5081 23.9461C13.3684 23.89 13.2189 23.8622 13.0683 23.8643H3.87096L6.48102 21.2542C6.65725 21.0887 6.77611 20.8713 6.82031 20.6336C6.86452 20.3959 6.83177 20.1503 6.72683 19.9325C6.62189 19.7147 6.45022 19.5361 6.23678 19.4225C6.02334 19.309 5.77925 19.2664 5.53998 19.3011ZM44.1937 19.3011C43.9771 19.3222 43.7711 19.4051 43.6002 19.5398C43.4293 19.6745 43.3007 19.8555 43.2296 20.0612C43.1586 20.2669 43.1481 20.4886 43.1994 20.7001C43.2507 20.9116 43.3616 21.1039 43.519 21.2542L46.1291 23.8643H36.9317C36.8962 23.8626 36.8607 23.8626 36.8252 23.8643C36.5238 23.8784 36.2404 24.0117 36.0373 24.2347C35.8341 24.4578 35.728 24.7525 35.7421 25.0539C35.7562 25.3552 35.8895 25.6387 36.1126 25.8418C36.3357 26.0449 36.6303 26.1511 36.9317 26.1369H46.1291L43.519 28.7292C43.4095 28.8333 43.322 28.9582 43.2614 29.0966C43.2008 29.235 43.1684 29.3841 43.1661 29.5352C43.1638 29.6863 43.1916 29.8363 43.248 29.9765C43.3044 30.1166 43.3881 30.2442 43.4944 30.3516C43.6006 30.459 43.7272 30.5442 43.8668 30.6021C44.0063 30.66 44.156 30.6895 44.3071 30.6889C44.4582 30.6882 44.6076 30.6575 44.7467 30.5985C44.8858 30.5394 45.0116 30.4532 45.117 30.3449L49.6624 25.7995C49.7692 25.6939 49.854 25.568 49.9119 25.4294C49.9698 25.2907 49.9996 25.142 49.9996 24.9917C49.9996 24.8414 49.9698 24.6926 49.9119 24.554C49.854 24.4153 49.7692 24.2895 49.6624 24.1838L45.117 19.6385C44.9982 19.5167 44.8535 19.4232 44.6937 19.3648C44.5339 19.3064 44.363 19.2847 44.1937 19.3011ZM21.591 36.3639H28.4091V46.5909C28.4091 46.9859 28.2699 47.3079 28.125 47.4964C27.98 47.6848 27.8932 47.7272 27.8054 47.7272H22.1946C22.1068 47.7272 22.02 47.6846 21.875 47.4964C21.7301 47.3079 21.591 46.9859 21.591 46.5909V36.3639ZM9.51721 39.1869C9.26678 39.2231 9.03558 39.3418 8.86026 39.5243L2.27297 46.1115V42.0455C2.27646 41.8838 2.24537 41.7232 2.18177 41.5744C2.11818 41.4256 2.02354 41.2921 1.90419 41.1828C1.78485 41.0735 1.64354 40.9911 1.48974 40.9408C1.33593 40.8906 1.17316 40.8737 1.01233 40.8914C0.729888 40.9225 0.469319 41.0582 0.281984 41.2718C0.0946486 41.4854 -0.00586169 41.7615 0.000264424 42.0455V48.8636C0.000301307 49.165 0.120036 49.4539 0.333136 49.667C0.546237 49.8801 0.835251 49.9999 1.13662 49.9999H7.95473C8.10529 50.002 8.25477 49.9741 8.39448 49.918C8.53419 49.8618 8.66135 49.7785 8.76857 49.6727C8.87578 49.567 8.96092 49.4411 9.01902 49.3021C9.07713 49.1632 9.10706 49.0142 9.10706 48.8636C9.10706 48.713 9.07713 48.5639 9.01902 48.425C8.96092 48.2861 8.87578 48.1601 8.76857 48.0544C8.66135 47.9487 8.53419 47.8653 8.39448 47.8091C8.25477 47.753 8.10529 47.7251 7.95473 47.7272H3.87096L10.4583 41.14C10.6345 40.9745 10.7533 40.7571 10.7975 40.5194C10.8417 40.2817 10.809 40.0361 10.7041 39.8183C10.5991 39.6005 10.4274 39.4219 10.214 39.3083C10.0006 39.1948 9.75648 39.1523 9.51721 39.1869ZM40.2165 39.1869C39.9999 39.208 39.7939 39.2908 39.623 39.4255C39.4521 39.5603 39.3234 39.7413 39.2524 39.947C39.1813 40.1527 39.1708 40.3744 39.2221 40.5859C39.2734 40.7974 39.3844 40.9897 39.5418 41.14L46.1291 47.7272H42.0453C41.8947 47.7251 41.7453 47.753 41.6055 47.8091C41.4658 47.8653 41.3387 47.9487 41.2315 48.0544C41.1242 48.1601 41.0391 48.2861 40.981 48.425C40.9229 48.5639 40.893 48.713 40.893 48.8636C40.893 49.0142 40.9229 49.1632 40.981 49.3021C41.0391 49.4411 41.1242 49.567 41.2315 49.6727C41.3387 49.7785 41.4658 49.8618 41.6055 49.918C41.7453 49.9741 41.8947 50.002 42.0453 49.9999H48.8634C49.1648 49.9999 49.4538 49.8801 49.6669 49.667C49.88 49.4539 49.9997 49.165 49.9998 48.8636V42.0455C50.0033 41.8838 49.9722 41.7232 49.9086 41.5744C49.845 41.4256 49.7503 41.2921 49.631 41.1828C49.5116 41.0735 49.3703 40.9911 49.2165 40.9408C49.0627 40.8906 48.9 40.8737 48.7391 40.8914C48.4567 40.9225 48.1961 41.0582 48.0088 41.2718C47.8214 41.4854 47.7209 41.7615 47.7271 42.0455V46.1115L41.1398 39.5243C41.0209 39.4025 40.8763 39.309 40.7165 39.2506C40.5567 39.1922 40.3858 39.1705 40.2165 39.1869Z" fill="white"/>
</svg>
