<svg width="56" height="50" viewBox="0 0 56 50" fill="none" xmlns="http://www.w3.org/2000/svg">
<path d="M53.9436 29.8873L43.7741 35.1854V33.4717L54.8036 27.7341C55.2555 27.4955 55.4376 26.9368 55.199 26.4786C54.9668 26.0266 54.4018 25.8446 53.9436 26.0894L43.7741 31.3876V29.5545L54.8036 23.8107C55.2555 23.5721 55.4376 23.0134 55.199 22.5552C54.9668 22.1095 54.4018 21.9274 53.9436 22.166L43.7741 27.4579V25.7316L54.6152 20.0944C54.9291 19.9312 55.1174 19.611 55.1112 19.2595C55.1112 18.908 54.9166 18.5941 54.5964 18.4372L37.71 10.0881C37.4527 9.9563 37.1451 9.9563 36.8877 10.0881L0.52233 27.8596C0.202179 28.0166 0.00130001 28.343 0.00130001 28.7008C0.00130001 29.0586 0.202179 29.3788 0.52233 29.5357L18.7081 38.3681C18.8337 38.4309 18.9718 38.4623 19.1099 38.4623C19.2543 38.4623 19.4049 38.4246 19.5368 38.3556L31.2693 32.2413V33.9676L19.0911 40.3078L1.32584 31.6826C0.873867 31.4629 0.315173 31.6512 0.0954619 32.1158C-0.124249 32.5803 0.0577972 33.1327 0.52233 33.3524L18.7081 42.1848C18.8337 42.2476 18.9718 42.279 19.1099 42.279C19.2543 42.279 19.4049 42.2413 19.5368 42.1722L31.2693 36.058V37.8847L19.0911 44.225L1.32584 35.5997C0.873867 35.3738 0.315173 35.5684 0.0954619 36.0392C-0.130527 36.4911 0.0577972 37.0561 0.52233 37.2758L18.7081 46.1019C18.8337 46.1647 18.9718 46.2024 19.1099 46.2024C19.2543 46.2024 19.4049 46.1647 19.5368 46.0894L31.2693 39.9814V41.6826L19.0911 48.0228L1.32584 39.4039C0.873867 39.1779 0.315173 39.3725 0.0954619 39.837C-0.130527 40.2953 0.0577972 40.854 0.52233 41.0737L18.7081 49.8998C18.8337 49.9689 18.9718 50.0002 19.1099 50.0002C19.2543 50.0002 19.4049 49.9626 19.5368 49.8873L32.6316 43.0825L54.8036 31.5382C55.2555 31.306 55.4376 30.741 55.199 30.289C54.9668 29.8308 54.4018 29.6487 53.9436 29.8873ZM32.1921 29.6738L16.6742 22.0341L25.4815 17.7278L40.7295 25.2294L32.1921 29.6738ZM37.2894 11.9588L52.1294 19.2909L42.7697 24.1622L27.597 16.692L37.2894 11.9588ZM19.0973 36.4911L3.05215 28.6945L14.565 23.0699L30.1394 30.7347L19.0973 36.4911ZM35.4439 30.0693C35.4501 30.063 35.4627 30.063 35.469 30.0567L41.9159 26.7046V36.1459L33.1338 40.7222V31.2808L35.4439 30.0693Z" fill="white"/>
<path d="M16.6153 12.4294C24.1105 12.4294 29.7728 9.75518 29.7728 6.21469C29.7728 2.6742 24.1168 0 16.6153 0C9.11369 0 3.45142 2.6742 3.45142 6.21469C3.45142 9.75518 9.11369 12.4294 16.6153 12.4294ZM16.6153 1.85813C23.2756 1.85813 27.9147 4.15568 27.9147 6.21469C27.9147 8.2737 23.2756 10.5712 16.6153 10.5712C9.95487 10.5712 5.31582 8.2737 5.31582 6.21469C5.31582 4.15568 9.95487 1.85813 16.6153 1.85813Z" fill="white"/>
<path d="M29.5508 11.6249C29.7643 11.1541 29.5508 10.6017 29.0863 10.3945C28.6155 10.1874 28.0694 10.3945 27.8559 10.8654C27.2156 12.2841 22.7398 13.822 16.6193 13.822C10.4987 13.822 6.0229 12.2841 5.37632 10.8591C5.16289 10.3945 4.61675 10.1811 4.14594 10.3945C3.68141 10.608 3.46798 11.1604 3.68141 11.6249C4.94318 14.4121 11.2709 15.6864 16.6193 15.6864C21.9677 15.6864 28.3016 14.4121 29.5508 11.6249Z" fill="white"/>
<path d="M17.5483 18.2668C17.5483 17.7521 17.134 17.3378 16.6255 17.3378C10.505 17.3378 6.02918 15.7998 5.3826 14.3685C5.16289 13.9103 4.61675 13.6969 4.14594 13.9103C3.68141 14.1237 3.46798 14.6699 3.68141 15.1407C4.94318 17.9279 11.2709 19.2022 16.6193 19.2022C17.134 19.2022 17.5483 18.7816 17.5483 18.2668Z" fill="white"/>
<path d="M10.8369 21.8286C11.2889 21.8286 11.6844 21.5022 11.7534 21.0376C11.835 20.5354 11.4835 20.0583 10.975 19.983C7.07673 19.3992 5.5827 18.4074 5.34415 17.9742C5.09305 17.5222 4.53436 17.359 4.08238 17.6039C3.6304 17.8487 3.46719 18.4136 3.71201 18.8656C4.65363 20.5794 8.03091 21.4206 10.6988 21.8223C10.749 21.8286 10.793 21.8286 10.8369 21.8286Z" fill="white"/>
<path d="M5.29244 21.3252C4.9974 20.9046 4.41987 20.7979 3.99928 21.0929C3.57869 21.388 3.47197 21.9592 3.76073 22.3861C4.27549 23.1268 5.46193 23.7169 7.38911 24.1814C7.46444 24.2003 7.53349 24.2065 7.60882 24.2065C8.02941 24.2065 8.40606 23.9241 8.51277 23.4972C8.63205 22.995 8.32445 22.4928 7.82853 22.3735C5.67536 21.8525 5.30499 21.3503 5.29244 21.3252Z" fill="white"/>
<path d="M29.3198 25.0523C31.4559 24.1664 32.9118 22.7836 32.5718 21.9638C32.2318 21.144 30.2246 21.1975 28.0885 22.0834C25.9525 22.9693 24.4966 24.3521 24.8366 25.1719C25.1766 25.9917 27.1838 25.9382 29.3198 25.0523Z" fill="white"/>
</svg>
