<svg width="344" height="220" viewBox="0 0 344 220" fill="none" xmlns="http://www.w3.org/2000/svg">
<path d="M186.81 75.709C186.013 72.4468 183.08 70.0234 179.572 70.0234C176.066 70.0234 173.132 72.4468 172.335 75.709H186.81Z" fill="#DFE5F4"/>
<path d="M225.725 75.6536C225.507 69.7237 220.634 64.9844 214.651 64.9844C208.67 64.9844 203.797 69.7237 203.578 75.6536H225.725Z" fill="#DFE5F4"/>
<path d="M206.884 75.7457C208.384 73.5961 209.267 70.9849 209.267 68.1652C209.267 60.8425 203.331 54.9062 196.008 54.9062C188.686 54.9062 182.75 60.8425 182.75 68.1652C182.75 70.9849 183.632 73.5961 185.133 75.7457H206.884Z" fill="#DFE5F4"/>
<path d="M121.079 36.1644C121.079 46.6864 112.549 55.2164 102.027 55.2164C91.5063 55.2164 82.9763 46.6864 82.9763 36.1644C82.9763 25.6425 91.5063 17.1133 102.027 17.1133C112.549 17.1133 121.079 25.6425 121.079 36.1644Z" fill="#FBAF49"/>
<path d="M111.782 19.8008C113.486 22.6539 114.468 25.9886 114.468 29.5532C114.468 40.0752 105.938 48.6052 95.4162 48.6052C91.8516 48.6052 88.517 47.6231 85.6638 45.9192C88.9889 51.487 95.0724 55.2171 102.029 55.2171C112.551 55.2171 121.08 46.6879 121.08 36.1659C121.08 29.2094 117.35 23.1259 111.782 19.8008Z" fill="#F6921F"/>
<path d="M343.809 209.588C343.809 214.865 266.845 219.144 171.905 219.144C76.9647 219.144 0 214.865 0 209.588C0 204.31 76.9647 200.031 171.905 200.031C266.845 200.031 343.809 204.31 343.809 209.588Z" fill="#DFE5F4"/>
<path d="M203.759 104.337L218.429 108.595L216.542 114.15L201.346 110.735L186.685 98.6184C184.741 96.9599 185.131 93.8528 187.424 92.7267C188.73 92.086 190.294 92.3057 191.373 93.2806L203.759 104.337Z" fill="#F8B9A6"/>
<path d="M217.753 108.234L216.376 114.067C216.225 114.709 216.623 115.354 217.265 115.506L220.907 116.366L222.835 108.205L219.192 107.345C218.549 107.193 217.905 107.591 217.753 108.234Z" fill="#F8B9A6"/>
<path d="M223.966 116.072C223.833 116.634 223.269 116.984 222.705 116.851L218.695 115.903L219.177 113.863L223.188 114.81C223.751 114.943 224.1 115.508 223.966 116.072Z" fill="#FBCAB6"/>
<path d="M224.303 114.056C224.169 114.62 223.605 114.968 223.042 114.835L219.031 113.888L219.514 111.848L223.523 112.795C224.087 112.928 224.436 113.493 224.303 114.056Z" fill="#FBCAB6"/>
<path d="M224.974 112.041C224.84 112.604 224.276 112.953 223.712 112.82L219.703 111.873L220.185 109.832L224.194 110.78C224.758 110.913 225.106 111.477 224.974 112.041Z" fill="#F8B9A6"/>
<path d="M225.31 109.857C225.176 110.42 224.612 110.769 224.049 110.636L220.039 109.688L220.521 107.648L224.53 108.596C225.094 108.728 225.443 109.293 225.31 109.857Z" fill="#F8B9A6"/>
<path d="M183.428 68.1758C183.428 68.1758 184.651 75.3568 178.877 76.9668C173.696 78.4113 175.77 69.7189 175.77 69.7189C175.77 69.7189 179.19 68.1432 180.012 68.1766C180.834 68.21 183.428 68.1758 183.428 68.1758Z" fill="#54181F"/>
<path d="M188.588 135.064L189.955 197.478H181.186L174.352 147.173V135.442C174.352 135.442 189.211 134.441 188.588 135.064Z" fill="#4D5CA9"/>
<path d="M160.797 134.504L158.898 197.452H167.666L174.501 147.146V135.416C174.501 135.416 160.175 133.881 160.797 134.504Z" fill="#5C66AF"/>
<path d="M162.873 88.0425L174.923 85.8125L186.972 88.0425C188.841 88.3584 189.938 89.5164 189.938 91.4901V133.682C189.938 135.107 188.611 136.263 186.972 136.263H174.923H162.873C161.234 136.263 159.906 135.107 159.906 133.682V91.4901C159.906 89.5164 161.004 88.3584 162.873 88.0425Z" fill="#85ACDB"/>
<path d="M177.243 86.6061L172.113 86.3164L168.304 136.166H184.569L183.715 129.898C183.715 129.898 181.954 119.289 181.705 114.758C181.458 110.226 177.243 86.6061 177.243 86.6061Z" fill="white"/>
<path d="M181.542 114.849C181.319 110.754 177.858 91.0854 177.191 87.3242L171.664 136.257H181.988L183.503 129.692C183.218 127.951 181.765 118.933 181.542 114.849Z" fill="#F0F2F3"/>
<path d="M172.101 86.3164L169.38 138.778L155.539 138.173L159.619 103.219L172.101 86.3164Z" fill="#85ACDB"/>
<path d="M172.102 86.3164L168.64 92.4676L171.634 94.8098L172.102 86.3164Z" fill="#699CD3"/>
<path d="M198.593 97.2633L192.283 104.521L181.07 94.5765L185.514 89.6398L189.408 89.1719L198.593 97.2633Z" fill="#85ACDB"/>
<path d="M174.565 90.0755C175.981 90.0755 177.13 88.927 177.13 87.5104V85.4492C177.13 84.7218 176.54 84.1328 175.813 84.1328H173.316C172.59 84.1328 172 84.7218 172 85.4492V87.5104C172 88.927 173.148 90.0755 174.565 90.0755Z" fill="#F8B9A6"/>
<path d="M188.353 197.512L188.709 201.688H183.332L182.75 197.512H188.353Z" fill="#FBCAB6"/>
<path d="M160.598 197.512L160.242 201.688H165.619L166.2 197.512H160.598Z" fill="#FBCAB6"/>
<path d="M170.222 64.4844L181.586 75.7569L166.701 74.8592C161.253 63.9647 170.222 64.4844 170.222 64.4844Z" fill="#54181F"/>
<path d="M165.617 76.9302C165.617 78.3333 166.754 79.4714 168.157 79.4722C169.56 79.4729 170.698 78.3357 170.699 76.9326C170.699 75.5295 169.562 74.3906 168.159 74.3906C166.756 74.3898 165.617 75.5271 165.617 76.9302Z" fill="#FBCAB6"/>
<path d="M166.625 77.0388C166.625 77.759 167.209 78.3432 167.929 78.3432C168.65 78.344 169.234 77.7598 169.234 77.0396C169.234 76.3185 168.651 75.7352 167.93 75.7344C167.209 75.7344 166.625 76.3177 166.625 77.0388Z" fill="#F69682"/>
<path d="M174.776 87.1057C178.535 87.1073 181.585 84.06 181.587 80.2988L181.591 70.3641L167.973 70.3594L167.969 80.294C167.968 84.0544 171.015 87.1049 174.776 87.1057Z" fill="#FBCAB6"/>
<path d="M167.866 77.0642C167.866 77.0642 169.569 73.3762 169.778 71.2338C169.986 69.0913 167.43 70.9154 167.43 70.9154L166.961 71.4343L167.866 77.0642Z" fill="#54181F"/>
<path d="M173.344 82.8113C174.206 82.7524 174.961 82.8232 175.73 82.8773L176.877 82.9919C177.266 83.0413 177.653 83.0699 178.085 83.1654C177.37 83.6684 176.484 83.7926 175.656 83.7273C175.24 83.6827 174.827 83.6039 174.436 83.4535C174.045 83.3071 173.665 83.1121 173.344 82.8113Z" fill="#6C1C25"/>
<path d="M176.069 77.0781L177.446 80.9189H176.067L174.688 80.9181L176.069 77.0781Z" fill="#F69682"/>
<path d="M170.992 74.2414C170.992 74.2414 172.277 72.816 174.226 74.0607" stroke="#6C1C25" stroke-width="0.00198964" stroke-miterlimit="2" stroke-linecap="round"/>
<path d="M171.664 76.1289C171.664 76.8102 172.086 77.3633 172.609 77.3633C173.131 77.3633 173.554 76.8109 173.554 76.1297C173.555 75.4476 173.132 74.8945 172.609 74.8945C172.088 74.8945 171.664 75.4469 171.664 76.1289Z" fill="#6C1C25"/>
<path d="M172.338 76.2641C172.353 76.448 172.515 76.5841 172.698 76.5681C172.882 76.553 173.018 76.3915 173.003 76.2076C172.987 76.0238 172.826 75.8877 172.642 75.9036C172.459 75.9187 172.322 76.0803 172.338 76.2641Z" fill="white"/>
<path d="M180.937 74.468C180.937 74.468 179.702 72.9988 177.711 74.1751" stroke="#6C1C25" stroke-width="0.00198964" stroke-miterlimit="2" stroke-linecap="round"/>
<path d="M180.273 76.3291C180.25 77.0104 179.808 77.5484 179.286 77.5301C178.763 77.5126 178.359 76.9451 178.383 76.2639C178.407 75.5826 178.848 75.0454 179.37 75.0629C179.891 75.0812 180.296 75.6479 180.273 76.3291Z" fill="#6C1C25"/>
<path d="M179.056 76.4321C179.073 76.6159 179.233 76.752 179.417 76.7361C179.601 76.721 179.737 76.5594 179.721 76.3756C179.706 76.1918 179.543 76.0557 179.361 76.0716C179.176 76.0867 179.042 76.2483 179.056 76.4321Z" fill="white"/>
<path d="M168.896 74.9164C169.27 74.489 168.386 74.575 167.959 74.2009C167.773 74.0386 168.387 73.2236 168.159 73.2148L168.159 74.38C166.756 74.3792 165.617 75.5165 165.617 76.9195C165.617 78.1635 166.511 79.1949 167.692 79.4146L169.302 77.5753L170.444 76.2717C170.818 75.8444 170.775 75.1949 170.347 74.8201C169.92 74.446 169.27 74.489 168.896 74.9164Z" fill="#F8B9A6"/>
<path d="M188.708 201.711C188.708 201.711 191.063 203.666 192.575 204.733C193.964 205.715 196.782 204.703 197.226 208.371C197.294 208.94 196.846 209.443 196.274 209.443H183.706C183.146 209.443 182.706 208.964 182.754 208.405L183.332 201.711H188.708Z" fill="#23264A"/>
<path d="M196.274 209.502H183.706C183.146 209.502 182.706 209.023 182.754 208.463L182.757 208.43H197.226V208.65C197.172 209.122 196.77 209.502 196.274 209.502Z" fill="#23264A"/>
<path d="M160.032 201.711C160.032 201.711 157.677 203.666 156.166 204.733C154.777 205.715 151.958 204.703 151.515 208.371C151.446 208.94 151.895 209.443 152.467 209.443H165.033C165.595 209.443 166.035 208.964 165.986 208.405L165.409 201.711H160.032Z" fill="#23264A"/>
<path d="M152.46 209.502H165.026C165.588 209.502 166.028 209.023 165.979 208.463L165.977 208.43H151.508V208.65C151.561 209.122 151.962 209.502 152.46 209.502Z" fill="#23264A"/>
<path d="M162.84 71.2865C163.268 71.6605 163.311 72.3108 162.937 72.7381L160.273 75.7807C159.417 75.0318 159.331 73.7322 160.08 72.8766L161.389 71.3828C161.763 70.9546 162.413 70.9116 162.84 71.2865Z" fill="#F8B9A6"/>
<path d="M154.922 93.8857C154.922 93.8857 152.074 96.7038 153.059 100.016C153.905 102.862 156.437 105.321 160.097 104.302C166.036 102.649 167.492 95.9868 167.545 95.9486C167.596 95.9112 168.762 94.0512 166.878 93.3939C164.995 92.7365 162.411 92.1953 162.411 92.1953L154.922 93.8857Z" fill="#85ACDB"/>
<path d="M160.523 75.3984L154.372 95.8463C153.738 97.8917 154.864 100.068 156.901 100.733C159.134 101.462 161.503 100.076 161.961 97.7715L166.073 76.9281L160.523 75.3984Z" fill="#FCCAB8"/>
<path d="M160.307 75.7874L164.732 79.6632C165.22 80.0897 165.961 80.0412 166.389 79.5533L168.809 76.7893L162.617 71.3672L160.197 74.1312C159.77 74.6183 159.819 75.36 160.307 75.7874Z" fill="#FCCAB8"/>
<path d="M169.733 73.9737C170.161 74.3478 170.204 74.998 169.83 75.4254L167.166 78.4679L165.617 77.1118L168.282 74.07C168.657 73.6426 169.306 73.5989 169.733 73.9737Z" fill="#FCCAB8"/>
<path d="M168.054 72.6297C168.482 73.0045 168.525 73.6547 168.15 74.0821L165.486 77.1239L163.938 75.7685L166.603 72.726C166.977 72.2986 167.627 72.2556 168.054 72.6297Z" fill="#FCCAB8"/>
<path d="M167.381 70.782C167.809 71.156 167.852 71.8063 167.478 72.2336L164.813 75.2762L163.265 73.9209L165.93 70.8783C166.304 70.4509 166.954 70.4079 167.381 70.782Z" fill="#FCCAB8"/>
<path d="M166.374 68.7664C166.801 69.1404 166.844 69.7906 166.469 70.218L163.806 73.2606L162.258 71.9044L164.922 68.8627C165.296 68.4353 165.947 68.3923 166.374 68.7664Z" fill="#FCCAB8"/>
<path d="M168.097 71.3194C168.097 71.3194 176.425 73.781 183.137 72.6349C189.85 71.4881 184.821 62.8387 181.715 61.8996C179.428 61.208 181.548 64.0859 179.555 64.6063C177.562 65.1268 174.585 62.0047 170.348 64.3724C166.113 66.74 168.097 71.3194 168.097 71.3194Z" fill="#54181F"/>
<path d="M177.04 86.6523L182.125 138.22L194.994 137.208L189.927 102.633L177.04 86.6523Z" fill="#85ACDB"/>
<path d="M194.629 101.873L188.797 96.3945L190.054 102.61L192.275 104.581L194.629 101.873Z" fill="#699CD3"/>
<path d="M177.04 86.6523L177.819 94.5552L181.151 92.3093L177.04 86.6523Z" fill="#699CD3"/>
<path d="M311.523 71.3374C311.523 71.3374 304.807 73.8777 305.404 84.1864C305.875 92.293 311.992 98.8859 311.992 98.8859L328.55 99.0355C328.55 99.0355 331.7 86.9552 330.431 80.6075C329.16 74.259 322.548 73.8777 322.548 73.8777C322.548 73.8777 318.911 68.5423 311.523 71.3374Z" fill="#54181F"/>
<path d="M297.619 108.526L287.302 102.609L285.211 106.669L295.339 113.336L297.619 108.526Z" fill="#FBCAB6"/>
<path d="M287.777 102.785L285.253 106.711C284.976 107.143 284.4 107.268 283.967 106.99L281.516 105.414L285.046 99.9219L287.497 101.498C287.929 101.775 288.055 102.352 287.777 102.785Z" fill="#FBCAB6"/>
<path d="M280.301 103.656C280.058 104.035 280.167 104.54 280.547 104.784L283.245 106.518L284.128 105.145L281.429 103.411C281.049 103.167 280.545 103.277 280.301 103.656Z" fill="#FBCAB6"/>
<path d="M280.974 102.313C280.73 102.692 280.839 103.196 281.219 103.441L283.918 105.175L284.8 103.802L282.102 102.067C281.723 101.823 281.218 101.933 280.974 102.313Z" fill="#FBCAB6"/>
<path d="M281.981 100.8C281.737 101.18 281.848 101.685 282.227 101.928L284.925 103.663L285.807 102.29L283.109 100.555C282.73 100.312 282.224 100.422 281.981 100.8Z" fill="#FBCAB6"/>
<path d="M282.988 99.4567C282.746 99.8363 282.855 100.341 283.234 100.584L285.932 102.319L286.815 100.946L284.116 99.2116C283.738 98.9681 283.233 99.0779 282.988 99.4567Z" fill="#FBCAB6"/>
<path d="M285.004 99.9606C284.761 100.34 284.871 100.845 285.249 101.088L287.949 102.823C288.436 102.065 288.216 101.055 287.457 100.567L286.132 99.7155C285.753 99.472 285.248 99.5818 285.004 99.9606Z" fill="#FBCAB6"/>
<path d="M306.735 135.064L306.975 197.478H311.961L316.539 144.893L317.662 135.442C317.662 135.442 306.112 134.441 306.735 135.064Z" fill="#F6921F"/>
<path d="M307.067 197.512L306.711 201.688H312.088L312.053 197.512H307.067Z" fill="#FBCAB6"/>
<path d="M306.501 201.711C306.501 201.711 304.146 203.666 302.636 204.733C301.246 205.715 298.428 204.703 297.984 208.371C297.916 208.94 298.364 209.443 298.937 209.443H311.503C312.063 209.443 312.504 208.964 312.456 208.405L311.879 201.711H306.501Z" fill="#23264A"/>
<path d="M298.93 209.502H311.496C312.057 209.502 312.497 209.023 312.449 208.463L312.446 208.43H297.977V208.65C298.03 209.122 298.433 209.502 298.93 209.502Z" fill="#23264A"/>
<path d="M315.476 134.43L321.198 197.526H326.41L326.701 141.394C326.701 141.394 328.198 133.237 325.575 127.64C323.82 123.894 314.853 133.806 315.476 134.43Z" fill="#FBAF49"/>
<path d="M321.176 197.512L320.82 201.688H326.197L326.388 197.512H321.176Z" fill="#FBCAB6"/>
<path d="M320.61 201.711C320.61 201.711 318.255 203.666 316.744 204.733C315.355 205.715 312.537 204.703 312.093 208.371C312.024 208.94 312.473 209.443 313.046 209.443H325.612C326.173 209.443 326.613 208.964 326.565 208.405L325.987 201.711H320.61Z" fill="#23264A"/>
<path d="M313.039 209.502H325.605C326.166 209.502 326.606 209.023 326.558 208.463L326.555 208.43H312.086V208.65C312.14 209.122 312.541 209.502 313.039 209.502Z" fill="#23264A"/>
<path d="M307.649 95.3867C307.649 95.3867 303.43 108.221 301.348 108.732C299.262 109.246 290.448 103.525 290.448 103.525L287.898 109.043C287.898 109.043 296.374 115.285 299.485 115.754C306.081 116.748 314.293 105.594 313.133 97.6764C312.373 96.0075 307.649 95.3867 307.649 95.3867Z" fill="#98C1E7"/>
<path d="M325.658 96.7376C325.552 95.5995 325.989 94.7113 324.684 94.7113L316.3 93.3711L309.411 94.7113C308.106 94.7113 307.046 95.5995 306.941 96.7376C306.484 101.657 302.88 107.736 305.872 111.34C307.667 124.47 305.872 136.188 305.872 136.188C305.872 136.188 310.964 136.193 316.3 136.197C321.634 136.193 328.439 136.188 328.439 136.188C328.439 136.188 327.329 120.998 326.728 111.34C329.719 107.736 326.114 101.657 325.658 96.7376Z" fill="#85ACDB"/>
<path d="M318.323 104.392C317.955 104.132 313.094 101.77 313.094 101.77C313.094 101.77 320.683 118.09 322.532 122.222C324.382 126.354 328.489 136.163 328.489 136.163C328.489 136.163 327.561 123.468 326.944 113.911C323.757 110.589 318.633 104.611 318.323 104.392Z" fill="#699CD3"/>
<path d="M316.287 95.944C314.894 95.944 313.766 95.0208 313.766 93.8811V89.8438H318.807V93.8811C318.807 95.0208 317.679 95.944 316.287 95.944Z" fill="#F8B9A6"/>
<path d="M322.331 84.0437C323.156 80.4847 317.883 79.045 314.472 78.1234C311.062 77.201 310.79 75.0625 310.79 75.0625C310.79 75.0625 309.051 80.5547 309.063 85.3052C309.07 88.1925 310.843 90.7138 313.294 91.7158C318.593 93.0425 321.243 88.7409 322.331 84.0437Z" fill="#FCCAB8"/>
<path d="M316.75 87.1474C316.509 87.4912 316.14 87.7196 315.75 87.8581C315.356 88.003 314.927 88.0451 314.508 88.0109C313.673 87.913 312.885 87.5024 312.422 86.8203C312.835 86.8888 313.191 86.993 313.547 87.0662C313.9 87.1458 314.242 87.1991 314.584 87.2358C314.927 87.2771 315.27 87.2747 315.625 87.2652C315.981 87.2485 316.343 87.2127 316.75 87.1474Z" fill="#6C1C25"/>
<path d="M315.384 81.6133L313.43 84.7848L314.661 85.0442L315.893 85.3029L315.384 81.6133Z" fill="#F69683"/>
<path d="M312.798 82.2363C312.67 82.8451 312.188 83.2589 311.722 83.1611C311.255 83.0632 310.982 82.4894 311.11 81.8805C311.238 81.2717 311.719 80.8579 312.186 80.9557C312.652 81.0544 312.927 81.6274 312.798 82.2363Z" fill="#6C1C25"/>
<path d="M313.683 80.1878C313.683 80.1878 312.173 79.0999 310.742 79.8783" stroke="#6C1C25" stroke-width="0.00180455" stroke-miterlimit="2" stroke-linecap="round"/>
<path d="M320.315 81.5818C320.315 81.5818 319.436 80.0665 317.46 80.8114" stroke="#6C1C25" stroke-width="0.00180455" stroke-miterlimit="2" stroke-linecap="round"/>
<path d="M311.996 82.3326C311.948 82.4902 311.783 82.5793 311.625 82.5324C311.468 82.4846 311.379 82.3191 311.426 82.1615C311.474 82.0039 311.639 81.9148 311.797 81.9617C311.954 82.0095 312.044 82.1758 311.996 82.3326Z" fill="white"/>
<path d="M319.181 83.2441C319.053 83.8529 318.572 84.2668 318.105 84.1689C317.639 84.0702 317.365 83.4972 317.493 82.8883C317.621 82.2795 318.103 81.8657 318.569 81.9636C319.037 82.0614 319.31 82.6353 319.181 83.2441Z" fill="#6C1C25"/>
<path d="M318.38 83.5087C318.332 83.6655 318.166 83.7554 318.009 83.7077C317.851 83.6607 317.762 83.4944 317.81 83.3368C317.858 83.18 318.023 83.0901 318.181 83.1378C318.337 83.1848 318.427 83.3511 318.38 83.5087Z" fill="white"/>
<path d="M323.607 105.865L316.198 96.5625L312.758 99.5653L319.714 109.496L323.607 105.865Z" fill="#FBCAB6"/>
<path d="M316.523 97.0384L312.732 99.7578C312.313 100.057 311.732 99.9608 311.432 99.5437L309.734 97.1745L315.04 93.3711L316.738 95.7396C317.038 96.1574 316.942 96.7391 316.523 97.0384Z" fill="#FBCAB6"/>
<path d="M314.778 93.3559C314.412 93.6186 314.328 94.1287 314.59 94.4948L316.46 97.1021C317.192 96.5768 317.36 95.5573 316.835 94.8243L315.916 93.5438C315.654 93.1777 315.145 93.0933 314.778 93.3559Z" fill="#F8B9A6"/>
<path d="M309.067 94.8679C308.701 95.1305 308.617 95.6407 308.88 96.0068L310.749 98.614L312.075 97.6621L310.206 95.0557C309.943 94.6888 309.433 94.6053 309.067 94.8679Z" fill="#FBCAB6"/>
<path d="M310.411 94.0278C310.044 94.2905 309.961 94.7998 310.223 95.1667L312.093 97.7731L313.42 96.8221L311.55 94.2157C311.287 93.8496 310.777 93.7652 310.411 94.0278Z" fill="#FBCAB6"/>
<path d="M311.754 93.02C311.388 93.2826 311.305 93.7928 311.567 94.1589L313.437 96.7653L314.763 95.815L312.894 93.2078C312.631 92.8417 312.121 92.7574 311.754 93.02Z" fill="#FBCAB6"/>
<path d="M313.098 92.0122C312.732 92.2748 312.648 92.785 312.911 93.1511L314.78 95.7583L316.106 94.8072L314.237 92.2C313.974 91.8339 313.464 91.7496 313.098 92.0122Z" fill="#FBCAB6"/>
<path d="M331.88 107.873C331.88 101.521 330.561 98.1767 329.325 96.4378C328.387 95.1183 326.831 94.3216 325.213 94.3821C318.606 94.6288 326.303 108.098 325.921 107.873C325.506 107.63 318.441 97.63 318.441 97.63L313.094 101.705C313.094 101.705 323.151 115.752 326.211 117.986C329.683 120.522 331.612 117.303 331.88 107.873Z" fill="#98C1E7"/>
<path d="M112.971 93.9258C112.971 93.9258 109.886 92.3031 110.736 88.0166C111.585 83.7309 107.337 80.3199 108.321 75.9944C109.305 71.6689 113.623 67.7661 120.645 70.0024C120.645 70.0024 137.902 68.0016 134.884 82.4671C133.371 89.7149 135.822 92.9811 138.505 95.578C141.188 98.1741 144.677 103.898 142.262 108.549C139.847 113.199 127.013 115.844 122.452 108.728C117.89 101.611 112.971 93.9258 112.971 93.9258Z" fill="#6C1C25"/>
<path d="M102.439 108.526L92.1228 102.609L90.0312 106.669L100.159 113.336L102.439 108.526Z" fill="#F8B9A6"/>
<path d="M92.5969 102.785L90.0741 106.711C89.7955 107.143 89.2201 107.268 88.7872 106.99L86.3359 105.414L89.8656 99.9219L92.3168 101.498C92.7497 101.775 92.8747 102.352 92.5969 102.785Z" fill="#F8B9A6"/>
<path d="M84.786 103.656C84.5425 104.035 84.6523 104.54 85.0319 104.784L87.7307 106.518L88.6125 105.145L85.9138 103.411C85.5349 103.167 85.0296 103.277 84.786 103.656Z" fill="#FBCAB6"/>
<path d="M85.7936 102.313C85.5501 102.692 85.6599 103.196 86.0387 103.441L88.7375 105.175L89.6201 103.802L86.9213 102.067C86.5425 101.823 86.0372 101.933 85.7936 102.313Z" fill="#FBCAB6"/>
<path d="M86.801 100.8C86.5574 101.18 86.6672 101.685 87.0461 101.928L89.7448 103.663L90.6274 102.29L87.9287 100.555C87.5499 100.312 87.0445 100.422 86.801 100.8Z" fill="#FBCAB6"/>
<path d="M87.4736 99.4567C87.23 99.8363 87.3399 100.341 87.7187 100.584L90.4174 102.319L91.3 100.946L88.6013 99.2116C88.2217 98.9681 87.7171 99.0779 87.4736 99.4567Z" fill="#F8B9A6"/>
<path d="M111.555 135.064L111.795 197.478H116.781L121.36 144.893L122.482 135.442C122.482 135.442 110.932 134.441 111.555 135.064Z" fill="#4D5CA9"/>
<path d="M111.551 197.512L111.196 201.688H116.573L116.538 197.512H111.551Z" fill="#FBCAB6"/>
<path d="M111.321 201.711C111.321 201.711 108.966 203.666 107.455 204.733C106.065 205.715 103.247 204.703 102.804 208.371C102.735 208.94 103.183 209.443 103.756 209.443H116.322C116.882 209.443 117.323 208.964 117.276 208.405L116.699 201.711H111.321Z" fill="#23264A"/>
<path d="M103.749 209.502H116.315C116.876 209.502 117.316 209.023 117.269 208.463L117.266 208.43H102.797V208.65C102.849 209.122 103.252 209.502 103.749 209.502Z" fill="#23264A"/>
<path d="M119.961 134.43L125.683 197.526H130.895L131.186 141.394C131.186 141.394 132.683 133.237 130.06 127.64C128.305 123.894 119.338 133.806 119.961 134.43Z" fill="#5C66AF"/>
<path d="M125.66 197.512L125.305 201.688H130.682L130.872 197.512H125.66Z" fill="#FBCAB6"/>
<path d="M125.43 201.711C125.43 201.711 123.075 203.666 121.564 204.733C120.174 205.715 117.356 204.703 116.913 208.371C116.844 208.94 117.293 209.443 117.864 209.443H130.431C130.992 209.443 131.432 208.964 131.384 208.405L130.807 201.711H125.43Z" fill="#23264A"/>
<path d="M117.857 209.502H130.424C130.985 209.502 131.425 209.023 131.377 208.463L131.374 208.43H116.906V208.65C116.959 209.122 117.36 209.502 117.857 209.502Z" fill="#23264A"/>
<path d="M112.46 95.3867C112.46 95.3867 108.242 108.221 106.158 108.732C104.073 109.246 95.2601 103.525 95.2601 103.525L92.0464 108.667C92.0464 108.667 101.185 115.285 104.296 115.754C110.891 116.748 119.105 105.594 117.944 97.6764C117.183 96.0075 112.46 95.3867 112.46 95.3867Z" fill="#FBAF49"/>
<path d="M115.699 107.198C115.051 106.898 111.123 107.949 111.123 107.949C111.123 107.949 110.359 111.645 106.869 113.312C103.394 114.973 100.803 114.311 100.781 114.309C102.122 115.035 103.345 115.58 104.181 115.705C108.273 116.322 112.986 112.261 115.699 107.198Z" fill="#F6921F"/>
<path d="M130.144 96.7376C130.038 95.5995 130.474 94.7113 129.169 94.7113L120.784 93.3711L113.896 94.7113C112.592 94.7113 111.532 95.5995 111.426 96.7376C110.97 101.657 107.365 107.736 110.356 111.34C112.152 124.47 110.356 136.188 110.356 136.188C110.356 136.188 115.449 136.193 120.784 136.197C126.12 136.193 132.923 136.188 132.923 136.188C132.923 136.188 131.814 120.998 131.213 111.34C134.204 107.736 130.6 101.657 130.144 96.7376Z" fill="#F6921F"/>
<path d="M130.264 113.302C129.254 111.845 124.486 106.379 122.921 104.475C121.357 102.571 117.578 101.77 117.578 101.77L132.974 136.163C132.974 136.163 132.127 124.572 131.512 115.203C130.954 114.33 130.503 113.646 130.264 113.302Z" fill="#F47920"/>
<path d="M120.771 95.944C119.379 95.944 118.25 95.0208 118.25 93.8811V89.8438H123.292V93.8811C123.292 95.0208 122.164 95.944 120.771 95.944Z" fill="#F8B9A6"/>
<path d="M125.845 82.1803C125.608 78.5345 120.143 78.6777 116.612 78.7788C113.081 78.8791 112.204 76.9102 112.204 76.9102C112.204 76.9102 112.122 82.6706 113.504 87.2165C114.344 89.9781 116.768 91.881 119.405 92.1341C124.861 91.8754 126.158 86.9912 125.845 82.1803Z" fill="#FCCAB8"/>
<path d="M121.481 86.8203C121.349 87.2182 121.061 87.5438 120.727 87.7889C120.392 88.0412 119.994 88.2051 119.583 88.2926C118.756 88.4399 117.882 88.2743 117.242 87.7547C117.657 87.7013 118.027 87.6989 118.39 87.6655C118.751 87.6401 119.095 87.5923 119.432 87.5286C119.773 87.4705 120.1 87.3687 120.437 87.2572C120.773 87.1387 121.11 86.9994 121.481 86.8203Z" fill="#6C1C25"/>
<path d="M118.535 81.7812L117.578 85.3817L118.832 85.2751L120.086 85.1676L118.535 81.7812Z" fill="#F69683"/>
<path d="M116.279 83.1687C116.333 83.7886 115.99 84.3242 115.515 84.364C115.04 84.4046 114.612 83.9351 114.56 83.3151C114.507 82.6951 114.848 82.1595 115.324 82.1197C115.799 82.0783 116.226 82.5487 116.279 83.1687Z" fill="#6C1C25"/>
<path d="M116.451 80.9318C116.451 80.9318 114.692 80.3262 113.546 81.4834" stroke="#6C1C25" stroke-width="0.00180455" stroke-miterlimit="2" stroke-linecap="round"/>
<path d="M122.886 80.4416C122.886 80.4416 121.607 79.2438 119.93 80.5267" stroke="#6C1C25" stroke-width="0.00180455" stroke-miterlimit="2" stroke-linecap="round"/>
<path d="M115.15 83.5906C115.15 83.7546 115.017 83.8883 114.853 83.8883C114.688 83.8883 114.555 83.7546 114.555 83.5906C114.555 83.4259 114.688 83.293 114.853 83.293C115.017 83.293 115.15 83.4259 115.15 83.5906Z" fill="white"/>
<path d="M122.663 82.3287C122.715 82.9487 122.374 83.4843 121.898 83.5249C121.423 83.5655 120.995 83.0959 120.943 82.4752C120.889 81.856 121.232 81.3204 121.707 81.2798C122.182 81.2392 122.609 81.7088 122.663 82.3287Z" fill="#6C1C25"/>
<path d="M121.868 82.7508C121.868 82.9147 121.736 83.0476 121.571 83.0476C121.407 83.0476 121.273 82.9147 121.273 82.7508C121.273 82.586 121.407 82.4531 121.571 82.4531C121.736 82.4531 121.868 82.586 121.868 82.7508Z" fill="white"/>
<path d="M128.092 105.865L120.683 96.5625L117.242 99.5653L124.2 109.496L128.092 105.865Z" fill="#FBCAB6"/>
<path d="M121.009 97.0384L117.216 99.7578C116.799 100.057 116.217 99.9608 115.918 99.5437L114.219 97.1745L119.525 93.3711L121.223 95.7396C121.522 96.1574 121.426 96.7391 121.009 97.0384Z" fill="#FBCAB6"/>
<path d="M119.598 93.3559C119.231 93.6186 119.148 94.1287 119.41 94.4948L121.279 97.1021C122.012 96.5768 122.18 95.5573 121.655 94.8243L120.736 93.5438C120.474 93.1777 119.963 93.0933 119.598 93.3559Z" fill="#FBCAB6"/>
<path d="M113.887 94.8679C113.521 95.1305 113.437 95.6407 113.699 96.0068L115.569 98.614L116.895 97.6621L115.026 95.0557C114.763 94.6888 114.253 94.6053 113.887 94.8679Z" fill="#FBCAB6"/>
<path d="M115.231 94.0278C114.864 94.2905 114.781 94.7998 115.043 95.1667L116.913 97.7731L118.239 96.8221L116.369 94.2157C116.106 93.8496 115.597 93.7652 115.231 94.0278Z" fill="#FBCAB6"/>
<path d="M116.24 93.02C115.873 93.2826 115.789 93.7928 116.052 94.1589L117.921 96.7653L119.248 95.815L117.378 93.2078C117.116 92.8417 116.606 92.7574 116.24 93.02Z" fill="#FBCAB6"/>
<path d="M117.583 92.0122C117.217 92.2748 117.133 92.785 117.395 93.1511L119.265 95.7583L120.592 94.8072L118.722 92.2C118.46 91.8339 117.949 91.7496 117.583 92.0122Z" fill="#FBCAB6"/>
<path d="M136.365 107.873C136.365 101.521 135.046 98.1767 133.809 96.4378C132.872 95.1183 131.315 94.3216 129.697 94.3821C123.09 94.6288 130.787 108.098 130.405 107.873C129.99 107.63 122.926 97.63 122.926 97.63L117.578 101.705C117.578 101.705 127.636 115.752 130.696 117.986C134.167 120.522 136.096 117.303 136.365 107.873Z" fill="#FBAF49"/>
<path d="M163.396 151.099C159.724 147.804 154.653 146.141 148.18 146.114C142.169 146.088 137.286 147.541 133.532 150.472C129.776 153.404 127.931 157.645 127.994 163.193L128.08 163.454L140.39 163.507C140.429 161.05 141.195 159.189 142.689 157.924C144.183 156.659 145.998 156.031 148.138 156.04C150.738 156.051 152.736 156.811 154.131 158.32C155.526 159.829 156.219 161.913 156.207 164.571C156.197 166.971 155.573 169.134 154.337 171.065C153.101 172.996 151.453 174.795 149.393 176.462C145.885 179.135 143.543 181.408 142.364 183.282C141.186 185.155 140.573 188.115 140.528 192.16L153.142 192.214C153.152 189.816 153.434 187.931 153.99 186.561C154.543 185.19 155.705 183.83 157.475 182.479C160.72 180.383 163.426 177.78 165.592 174.667C167.759 171.555 168.849 168.164 168.865 164.495C168.889 158.859 167.066 154.394 163.396 151.099Z" fill="#FBAF49"/>
<path d="M140.422 210.196L153.167 210.25L153.213 199.413L140.469 199.359L140.422 210.196Z" fill="#FBAF49"/>
<path d="M139.361 157.908C137.871 159.171 137.104 161.027 137.063 163.476L140.368 163.491C140.407 161.034 141.173 159.173 142.667 157.908C143.766 156.978 145.041 156.394 146.49 156.153C145.96 156.074 145.403 156.027 144.81 156.024C142.67 156.015 140.855 156.643 139.361 157.908Z" fill="#F6921F"/>
<path d="M163.588 151.099C159.917 147.804 154.845 146.141 148.372 146.113C147.723 146.111 147.091 146.133 146.468 146.165C152.268 146.415 156.884 148.047 160.282 151.099C163.952 154.394 165.775 158.859 165.751 164.495C165.735 168.164 164.645 171.555 162.478 174.667C160.312 177.78 157.606 180.383 154.361 182.478C152.592 183.83 151.43 185.19 150.876 186.56C150.321 187.928 150.04 189.808 150.028 192.2L153.334 192.213C153.344 189.815 153.626 187.931 154.182 186.56C154.736 185.19 155.898 183.83 157.667 182.478C160.912 180.383 163.618 177.78 165.784 174.667C167.951 171.555 169.041 168.164 169.057 164.495C169.081 158.859 167.258 154.394 163.588 151.099Z" fill="#F6921F"/>
<path d="M140.423 199.359L140.422 199.373L149.861 199.413L149.815 210.236L153.121 210.25L153.167 199.413L140.423 199.359Z" fill="#F6921F"/>
<path d="M274.498 100.788C274.498 100.788 266.694 94.4034 271.862 90.6016C277.418 86.5141 285.523 91.5598 285.523 91.5598L286.444 94.826C286.444 94.826 283.916 98.7432 283.371 99.3035C282.826 99.8645 274.498 100.788 274.498 100.788Z" fill="#6C1C25"/>
<path d="M328.378 171.645H235.492V178.339H328.378V171.645Z" fill="#5C66AF"/>
<path d="M259.008 196.317L260.56 200.149L265.287 197.748L263.933 193.816L259.008 196.317Z" fill="#FCCAB8"/>
<path d="M260.47 200.081C260.47 200.081 259.272 202.851 258.42 204.464C257.636 205.946 254.706 206.315 255.954 209.739C256.147 210.269 256.766 210.512 257.27 210.257L268.319 204.647C268.812 204.397 268.985 203.778 268.693 203.308L265.197 197.68L260.47 200.081Z" fill="#23264A"/>
<path d="M257.3 210.199L268.35 204.589C268.842 204.339 269.015 203.72 268.724 203.251L268.706 203.223L255.985 209.682L256.083 209.876C256.34 210.267 256.863 210.421 257.3 210.199Z" fill="#23264A"/>
<path d="M304.592 196.317L303.04 200.149L298.312 197.748L299.666 193.816L304.592 196.317Z" fill="#FCCAB8"/>
<path d="M302.983 200.081C302.983 200.081 304.18 202.851 305.033 204.464C305.818 205.946 308.746 206.315 307.498 209.739C307.305 210.269 306.686 210.512 306.183 210.257L295.134 204.647C294.641 204.397 294.468 203.778 294.759 203.308L298.255 197.68L302.983 200.081Z" fill="#23264A"/>
<path d="M306.183 210.199L295.134 204.589C294.641 204.339 294.468 203.72 294.759 203.251L294.777 203.223L307.498 209.682L307.4 209.876C307.143 210.267 306.62 210.421 306.183 210.199Z" fill="#23264A"/>
<path d="M309.807 159.452C302.389 158.792 291.649 158.625 281.871 161.435C272.094 158.625 261.354 158.792 253.935 159.452C249.158 159.878 246.072 164.697 247.679 169.216L257.806 197.668L265.6 194.225L260.193 172.362L281.871 173.96L303.55 172.362L298.142 194.225L305.937 197.668L316.062 169.216C317.671 164.697 314.584 159.878 309.807 159.452Z" fill="#6F7CBC"/>
<path d="M293.088 114.551L281.206 112.352L269.324 114.551C267.482 114.862 266.398 116.004 266.398 117.951V159.556C266.398 160.962 267.708 162.1 269.324 162.1H293.088C294.704 162.1 296.013 160.962 296.013 159.556V117.951C296.013 116.004 294.931 114.862 293.088 114.551Z" fill="#5C66AF"/>
<path d="M295.887 159.516V138.635C294.597 137.141 292.15 134.996 291.735 134.355C291.245 133.6 287.503 134.355 287.503 134.355H287.227L292.962 162.06C294.578 162.06 295.887 160.921 295.887 159.516Z" fill="#4D5CA9"/>
<path d="M275.235 113.377L271.774 119.278L275.331 121.07V113.359L275.235 113.377Z" fill="#6F7CBC"/>
<path d="M285.884 113.215L284.049 112.875L283.999 112.866L281.219 112.352L275.469 113.416V162.1H287.366V113.49L285.884 113.215Z" fill="#85ACDB"/>
<path d="M258.137 104.833L252.736 85.8125L247.25 87.6469L251.816 107.181L263.694 121.695C265.32 123.621 268.386 123.25 269.508 120.994C270.145 119.71 269.937 118.168 268.981 117.099L258.137 104.833Z" fill="#F8B9A6"/>
<path d="M252.902 86.456L247.144 87.7867C246.509 87.9331 245.876 87.5376 245.729 86.9033L244.898 83.3068L252.955 81.4453L253.787 85.0418C253.932 85.6761 253.537 86.3096 252.902 86.456Z" fill="#F8B9A6"/>
<path d="M245.363 80.4642C244.808 80.5931 244.461 81.1478 244.589 81.7041L245.504 85.6627L247.518 85.1971L246.604 81.2385C246.475 80.6822 245.92 80.336 245.363 80.4642Z" fill="#FCCAB8"/>
<path d="M247.378 79.9602C246.822 80.0892 246.476 80.6439 246.605 81.2002L247.519 85.1588L249.533 84.6932L248.618 80.7346C248.49 80.1783 247.936 79.8321 247.378 79.9602Z" fill="#FCCAB8"/>
<path d="M249.395 79.4566C248.838 79.5848 248.492 80.1395 248.62 80.6958L249.535 84.6544L251.55 84.1896L250.634 80.231C250.506 79.6739 249.951 79.3277 249.395 79.4566Z" fill="#F8B9A6"/>
<path d="M251.41 78.9527C250.854 79.0808 250.507 79.6355 250.636 80.1926L251.551 84.1512L253.565 83.6856L252.65 79.7271C252.521 79.1707 251.967 78.8238 251.41 78.9527Z" fill="#F8B9A6"/>
<path d="M260.04 105.452L254.503 88.332L247.25 90.8883L252.775 110.543L267.132 128.328L271.559 123.001L269.352 115.506L260.04 105.452Z" fill="#5C66AF"/>
<path d="M287.227 120.996L290.784 119.204L287.371 113.386L287.227 113.359V120.996Z" fill="#6F7CBC"/>
<path d="M281.316 116.437C279.941 116.437 278.828 115.323 278.828 113.948V111.949C278.828 111.244 279.4 110.672 280.105 110.672H282.527C283.232 110.672 283.804 111.244 283.804 111.949V113.948C283.804 115.323 282.69 116.437 281.316 116.437Z" fill="#F8B9A6"/>
<path d="M285.486 91.5234L274.461 102.459L288.901 101.589C294.629 92.153 285.486 91.5234 285.486 91.5234Z" fill="#6C1C25"/>
<path d="M290.141 103.73C290.141 105.091 289.038 106.194 287.677 106.195C286.316 106.196 285.212 105.092 285.211 103.731C285.211 102.37 286.314 101.266 287.675 101.266C289.037 101.265 290.141 102.368 290.141 103.73Z" fill="#FBCAB6"/>
<path d="M288.751 103.706C288.751 104.405 288.184 104.971 287.485 104.972C286.787 104.972 286.219 104.406 286.219 103.708C286.219 103.008 286.785 102.441 287.485 102.441C288.183 102.441 288.75 103.007 288.751 103.706Z" fill="#F69682"/>
<path d="M281.072 113.48C277.424 113.482 274.465 110.525 274.464 106.877L274.461 97.2391L287.671 97.2344L287.675 106.872C287.677 110.52 284.72 113.479 281.072 113.48Z" fill="#FBCAB6"/>
<path d="M282.42 108.488C282.203 108.875 281.856 109.166 281.472 109.376C281.087 109.594 280.649 109.715 280.203 109.751C279.758 109.774 279.302 109.731 278.893 109.562C278.476 109.416 278.108 109.159 277.821 108.831C278.265 108.852 278.65 108.916 279.033 108.932C279.411 108.959 279.778 108.955 280.141 108.926C280.877 108.885 281.583 108.71 282.42 108.488Z" fill="#6C1C25"/>
<path d="M279.829 103.785L278.492 107.511L279.83 107.511L281.167 107.51L279.829 103.785Z" fill="#F69682"/>
<path d="M284.988 101.096C284.988 101.096 283.742 99.713 281.851 100.92" stroke="#6C1C25" stroke-width="0.00192023" stroke-miterlimit="2" stroke-linecap="round"/>
<path d="M284.022 102.966C284.022 103.628 283.612 104.164 283.105 104.164C282.599 104.164 282.188 103.629 282.188 102.967C282.187 102.306 282.597 101.77 283.104 101.77C283.611 101.77 284.021 102.305 284.022 102.966Z" fill="#6C1C25"/>
<path d="M283.17 102.624C283.155 102.802 282.999 102.934 282.821 102.919C282.643 102.904 282.511 102.747 282.525 102.569C282.541 102.391 282.697 102.259 282.875 102.275C283.053 102.29 283.186 102.446 283.17 102.624Z" fill="white"/>
<path d="M275.133 101.321C275.133 101.321 276.331 99.8948 278.263 101.037" stroke="#6C1C25" stroke-width="0.00192023" stroke-miterlimit="2" stroke-linecap="round"/>
<path d="M275.806 103.166C275.83 103.827 276.258 104.349 276.764 104.332C277.27 104.314 277.662 103.764 277.64 103.103C277.617 102.443 277.188 101.92 276.682 101.938C276.176 101.955 275.784 102.505 275.806 103.166Z" fill="#6C1C25"/>
<path d="M276.787 102.793C276.772 102.971 276.615 103.103 276.437 103.087C276.26 103.072 276.128 102.916 276.142 102.738C276.158 102.56 276.314 102.427 276.492 102.443C276.67 102.458 276.802 102.614 276.787 102.793Z" fill="white"/>
<path d="M292.206 128.567L284.31 116.551L279.836 119.788L287.121 132.511L292.206 128.567Z" fill="#FBCAB6"/>
<path d="M284.666 117.098L279.801 119.954C279.265 120.269 278.575 120.09 278.26 119.553L276.477 116.516L283.284 112.52L285.067 115.557C285.382 116.094 285.203 116.783 284.666 117.098Z" fill="#FBCAB6"/>
<path d="M283.011 112.488C282.541 112.763 282.384 113.368 282.659 113.838L284.623 117.182C285.563 116.63 285.877 115.421 285.325 114.481L284.362 112.839C284.085 112.368 283.481 112.212 283.011 112.488Z" fill="#F8B9A6"/>
<path d="M275.956 113.831C275.486 114.107 275.329 114.711 275.605 115.182L277.568 118.526L279.27 117.527L277.306 114.182C277.03 113.712 276.426 113.556 275.956 113.831Z" fill="#FBCAB6"/>
<path d="M277.636 112.824C277.167 113.099 277.009 113.704 277.285 114.173L279.249 117.518L280.95 116.52L278.987 113.175C278.711 112.705 278.106 112.547 277.636 112.824Z" fill="#FBCAB6"/>
<path d="M279.316 111.816C278.846 112.091 278.689 112.696 278.965 113.166L280.927 116.511L282.63 115.511L280.666 112.167C280.39 111.697 279.785 111.54 279.316 111.816Z" fill="#FBCAB6"/>
<path d="M281.331 110.808C280.861 111.084 280.703 111.689 280.979 112.158L282.943 115.502L284.645 114.504L282.681 111.159C282.405 110.689 281.801 110.532 281.331 110.808Z" fill="#FBCAB6"/>
<path d="M302.112 132.051C302.811 124.402 301.271 120.085 299.837 117.941C298.401 115.793 295.731 114.911 293.782 114.72C287.456 114.097 294.936 131.395 294.936 131.395C294.463 131.056 287.057 118.239 287.057 118.239L280.172 122.556C280.172 122.556 290.734 140.575 294.172 143.602C298.074 147.036 300.751 143.373 302.112 132.051Z" fill="#5C66AF"/>
<path d="M248.153 178.363H243.219V209.534H248.153V178.363Z" fill="#5C66AF"/>
<path d="M321.386 178.363H316.453V209.534H321.386V178.363Z" fill="#5C66AF"/>
<path d="M274.461 97.2656C274.461 97.2656 276.299 99.9142 279.944 100.192C279.944 100.192 278.942 98.8819 278.912 98.1975C278.912 98.1975 283.394 101.263 287.672 99.7152C291.951 98.1681 287.159 94.7148 287.159 94.7148L282.096 95.4287L274.461 97.2656Z" fill="#6C1C25"/>
<path d="M266.284 121.953L252.625 110.504L266.284 127.425V121.953Z" fill="#4D5CA9"/>
<path d="M226.007 89.5534C227.758 83.6505 229.887 79.5733 232.393 77.3211C234.898 75.0704 239.274 72.7178 245.523 70.2666C249.231 68.6829 252.392 66.7354 255.007 64.4234C257.62 62.1123 259.434 59.2026 260.447 55.6953C261.572 51.8083 261.425 48.4697 260.013 45.6803C258.598 42.8916 255.99 40.9457 252.187 39.8467C249.059 38.9434 246.14 39.1073 243.427 40.3369C240.713 41.5673 238.816 43.9724 237.736 47.5513L219.737 42.348L219.721 41.931C221.938 33.7822 226.405 28.3426 233.123 25.6152C239.841 22.887 247.594 22.7931 256.382 25.3335C265.847 28.0696 272.579 32.6147 276.581 38.9664C280.582 45.3189 281.391 52.6145 279.009 60.8548C277.458 66.2213 274.449 70.7298 269.982 74.3836C265.515 78.0365 260.47 80.7225 254.846 82.4384C251.694 83.6799 249.427 85.1873 248.045 86.9621C246.662 88.7376 245.464 91.3783 244.451 94.8848L226.007 89.5534ZM236.993 121.16L218.359 115.773L222.94 99.9289L241.572 105.315L236.993 121.16Z" fill="#FBAF49"/>
<path d="M276.565 38.8675C272.563 32.5157 265.831 27.9706 256.366 25.2345C255.149 24.8827 253.954 24.5866 252.777 24.3359C261.01 27.1206 266.963 31.4151 270.625 37.2264C274.626 43.5789 275.435 50.8745 273.053 59.1148C271.502 64.4805 268.493 68.9898 264.027 72.6427C259.56 76.2965 254.515 78.9817 248.89 80.6976C245.739 81.9399 243.471 83.4473 242.09 85.2212C240.715 86.9848 239.525 89.604 238.516 93.0755L244.434 94.7858C245.448 91.2793 246.645 88.6386 248.028 86.8631C249.411 85.0883 251.677 83.581 254.83 82.3394C260.454 80.6236 265.499 77.9376 269.966 74.2846C274.433 70.6308 277.442 66.1215 278.993 60.7559C281.375 52.5156 280.565 45.22 276.565 38.8675Z" fill="#F6921F"/>
<path d="M237.464 38.6692C234.768 39.8909 232.88 42.2745 231.797 45.8144L237.712 47.5247C238.792 43.9458 240.69 41.5407 243.404 40.3103C245.202 39.4945 247.095 39.1587 249.076 39.2812C248.213 38.8523 247.267 38.4806 246.224 38.179C243.096 37.2757 240.177 37.4396 237.464 38.6692Z" fill="#F6921F"/>
<path d="M235.684 103.617L231.125 119.393L237.045 121.104L241.624 105.259L235.684 103.617Z" fill="#F6921F"/>
<path d="M61.1701 49.841C60.3734 46.5796 57.4399 44.1562 53.9326 44.1562C50.4252 44.1562 47.4917 46.5796 46.6951 49.841H61.1701Z" fill="#DFE5F4"/>
<path d="M100.085 49.7864C99.8657 43.8573 94.9935 39.1172 89.011 39.1172C83.0286 39.1172 78.1564 43.8573 77.9375 49.7864H100.085Z" fill="#DFE5F4"/>
<path d="M81.2439 49.7097C82.7441 47.5609 83.6275 44.9489 83.6275 42.1292C83.6275 34.8074 77.6912 28.8711 70.3686 28.8711C63.0459 28.8711 57.1096 34.8074 57.1096 42.1292C57.1096 44.9489 57.9922 47.5609 59.4924 49.7097H81.2439Z" fill="#DFE5F4"/>
<path d="M303.688 60.2551C304.484 56.9937 307.419 54.5703 310.925 54.5703C314.432 54.5703 317.366 56.9937 318.163 60.2551H303.688Z" fill="#DFE5F4"/>
<path d="M264.719 60.2005C264.938 54.2714 269.811 49.5312 275.793 49.5312C281.775 49.5312 286.648 54.2714 286.866 60.2005H264.719Z" fill="#DFE5F4"/>
<path d="M283.562 60.1238C282.063 57.975 281.18 55.363 281.18 52.5441C281.18 45.2214 287.116 39.2852 294.439 39.2852C301.761 39.2852 307.698 45.2214 307.698 52.5441C307.698 55.363 306.815 57.975 305.315 60.1238H283.562Z" fill="#DFE5F4"/>
<path d="M159.906 30.9332C161.066 26.1843 165.337 22.6562 170.443 22.6562C175.549 22.6562 179.819 26.1843 180.979 30.9332H159.906Z" fill="#DFE5F4"/>
<path d="M103.133 30.9671C103.451 22.3344 110.544 15.4336 119.254 15.4336C127.964 15.4336 135.058 22.3344 135.377 30.9671H103.133Z" fill="#DFE5F4"/>
<path d="M130.453 30.9919C128.268 27.8634 126.984 24.0608 126.984 19.9558C126.984 9.29454 135.625 0.652344 146.287 0.652344C156.948 0.652344 165.59 9.29454 165.59 19.9558C165.59 24.0608 164.305 27.8634 162.12 30.9919H130.453Z" fill="#DFE5F4"/>
<path d="M79.1596 114.064L76.6997 119.53C76.4283 120.132 76.6965 120.84 77.2981 121.112L80.7116 122.648L84.1544 115.002L80.741 113.465C80.1393 113.194 79.431 113.463 79.1596 114.064Z" fill="#FBCAB6"/>
<path d="M84.4236 115.258C84.1864 115.786 83.5656 116.021 83.038 115.784L79.2808 114.092C79.7559 113.036 80.9974 112.565 82.0527 113.041L83.8983 113.872C84.4268 114.109 84.6615 114.73 84.4236 115.258Z" fill="#FBCAB6"/>
<path d="M45.0212 68.1758C45.0212 68.1758 46.2436 75.3568 40.4697 76.9668C35.2894 78.4113 37.3626 69.7189 37.3626 69.7189C37.3626 69.7189 40.7832 68.1432 41.6045 68.1766C42.4267 68.21 45.0212 68.1758 45.0212 68.1758Z" fill="#54181F"/>
<path d="M50.1821 135.064L51.5486 197.478H42.7799L35.9451 147.173V135.442C35.9451 135.442 50.8053 134.441 50.1821 135.064Z" fill="#4D5CA9"/>
<path d="M22.0562 134.504L20.1565 197.452H28.9252L35.7592 147.146V135.416C35.7592 135.416 21.433 133.881 22.0562 134.504Z" fill="#5C66AF"/>
<path d="M25.2381 134.523L22.5076 137.513L33.8262 147.852L42.6164 138.227L39.3853 135.276C37.3877 135.392 35.9137 135.491 35.9137 135.491C35.9137 135.491 29.2811 134.781 25.2381 134.523Z" fill="#4D5CA9"/>
<path d="M24.4659 88.0425L36.5151 85.8125L48.5652 88.0425C50.4338 88.3584 51.5313 89.5164 51.5313 91.4901V133.682C51.5313 135.107 50.2031 136.263 48.5652 136.263H36.5151H24.4659C22.8272 136.263 21.4998 135.107 21.4998 133.682V91.4901C21.4998 89.5164 22.5964 88.3584 24.4659 88.0425Z" fill="#85ACDB"/>
<path d="M51.3679 129.844V115.543C49.0758 115.579 47.196 115.792 45.7595 116.194C43.1953 116.913 40.2593 119.058 36.9534 122.628L48.1566 132.86C49.2859 131.624 50.3548 130.624 51.3679 129.844Z" fill="#699CD3"/>
<path d="M28.476 130.242C28.102 130.685 27.4406 130.74 26.9989 130.367L23.8513 127.708C24.5978 126.824 25.9205 126.713 26.8047 127.459L28.3511 128.765C28.7936 129.139 28.8493 129.801 28.476 130.242Z" fill="#F8B9A6"/>
<path d="M64.2959 108.088L75.7372 112.78L72.8291 117.875L60.7122 113.911L46.4656 96.9561C44.8715 94.9585 45.8448 91.9828 48.3104 91.3119C49.7135 90.9307 51.2081 91.4432 52.0812 92.6052L64.2959 108.088Z" fill="#FBCAB6"/>
<path d="M60.8574 101.489L53.327 107.47L41.6558 92.8773L46.9267 88.8359L50.8407 89.089L60.8574 101.489Z" fill="#85ACDB"/>
<path d="M36.1575 90.0755C37.5741 90.0755 38.7225 88.927 38.7225 87.5104V85.4492C38.7225 84.7218 38.1336 84.1328 37.4062 84.1328H34.9096C34.1822 84.1328 33.5933 84.7218 33.5933 85.4492V87.5104C33.5933 88.927 34.7417 90.0755 36.1575 90.0755Z" fill="#F8B9A6"/>
<path d="M49.9463 197.512L50.3021 201.688H44.9245L44.3435 197.512H49.9463Z" fill="#FBCAB6"/>
<path d="M21.8557 197.512L21.5 201.688H26.8768L27.4578 197.512H21.8557Z" fill="#FBCAB6"/>
<path d="M31.8159 64.4844L43.1807 75.7569L28.295 74.8592C22.8458 63.9647 31.8159 64.4844 31.8159 64.4844Z" fill="#54181F"/>
<path d="M26.875 76.9302C26.8742 78.3333 28.0123 79.4714 29.4146 79.4722C30.8177 79.4729 31.9565 78.3357 31.9565 76.9326C31.9573 75.5295 30.8201 74.3906 29.417 74.3906C28.0131 74.3898 26.8758 75.5271 26.875 76.9302Z" fill="#FBCAB6"/>
<path d="M28.2185 77.0388C28.2177 77.759 28.8019 78.3432 29.5221 78.3432C30.2424 78.344 30.8265 77.7598 30.8273 77.0396C30.8273 76.3185 30.2432 75.7352 29.5229 75.7344C28.8027 75.7344 28.2185 76.3177 28.2185 77.0388Z" fill="#F69682"/>
<path d="M36.369 87.1057C40.1294 87.1073 43.1791 84.06 43.1807 80.2988L43.1847 70.3641L29.566 70.3594L29.562 80.294C29.5604 84.0544 32.6078 87.1049 36.369 87.1057Z" fill="#FBCAB6"/>
<path d="M34.6016 81.4453C35.4348 81.8822 36.1678 82.2109 36.9255 82.2531C37.2987 82.2786 37.6831 82.2627 38.0771 82.1624C38.4798 82.082 38.8761 81.9268 39.3433 81.7987C39.0989 82.2038 38.7543 82.5555 38.3174 82.7831C37.8948 83.0418 37.3672 83.1269 36.8594 83.1039C36.3485 83.0601 35.8558 82.8763 35.4659 82.577C35.0759 82.2825 34.7583 81.9013 34.6016 81.4453Z" fill="#6C1C25"/>
<path d="M37.3264 76.2383L38.7032 80.0791L37.3248 80.0783H35.9456L37.3264 76.2383Z" fill="#F69682"/>
<path d="M32.2502 74.2414C32.2502 74.2414 33.5356 72.816 35.4846 74.0607" stroke="#6C1C25" stroke-width="0.00198964" stroke-miterlimit="2" stroke-linecap="round"/>
<path d="M32.9221 76.1289C32.9221 76.8102 33.3455 77.3633 33.8676 77.3633C34.3897 77.3633 34.8131 76.8109 34.8131 76.1297C34.8139 75.4476 34.3905 74.8945 33.8684 74.8945C33.3463 74.8945 32.9229 75.4469 32.9221 76.1289Z" fill="#6C1C25"/>
<path d="M33.9309 76.6001C33.9461 76.7831 34.1076 76.92 34.2915 76.9041C34.4753 76.8882 34.6114 76.7274 34.5955 76.5436C34.5804 76.3597 34.4188 76.2236 34.235 76.2395C34.0519 76.2547 33.915 76.4162 33.9309 76.6001Z" fill="white"/>
<path d="M42.1946 74.468C42.1946 74.468 40.9594 72.9988 38.969 74.1751" stroke="#6C1C25" stroke-width="0.00198964" stroke-miterlimit="2" stroke-linecap="round"/>
<path d="M41.531 76.3291C41.5079 77.0104 41.0654 77.5484 40.5441 77.5301C40.0221 77.5126 39.6178 76.9451 39.6416 76.2639C39.6647 75.5826 40.1072 75.0454 40.6285 75.0629C41.1506 75.0812 41.5549 75.6479 41.531 76.3291Z" fill="#6C1C25"/>
<path d="M40.6495 76.768C40.6646 76.9519 40.8261 77.088 41.01 77.0721C41.193 77.0561 41.3299 76.8954 41.314 76.7115C41.2981 76.5277 41.1365 76.3916 40.9535 76.4075C40.7696 76.4226 40.6335 76.5842 40.6495 76.768Z" fill="white"/>
<path d="M32.7327 67.6162C28.8226 66.9938 29.6718 68.1367 29.363 68.4033C29.0542 68.6699 29.367 70.299 29.367 70.299C37.0605 73.6161 42.9857 70.3038 42.9857 70.3038C42.9857 70.3038 47.2411 68.0865 46.8511 63.6759C46.3927 58.4885 34.3069 63.1904 31.6185 64.4168C28.9301 65.6432 32.7327 67.6162 32.7327 67.6162Z" fill="#54181F"/>
<path d="M50.3016 201.711C50.3016 201.711 52.6566 203.666 54.1679 204.733C55.5575 205.715 58.3756 204.703 58.8189 208.371C58.8873 208.94 58.4393 209.443 57.867 209.443H45.2997C44.7394 209.443 44.2993 208.964 44.3471 208.405L44.924 201.711H50.3016Z" fill="#23264A"/>
<path d="M57.867 209.502H45.2997C44.7394 209.502 44.2993 209.023 44.3471 208.463L44.3502 208.43H58.8189V208.65C58.7664 209.122 58.3637 209.502 57.867 209.502Z" fill="#23264A"/>
<path d="M21.6256 201.711C21.6256 201.711 19.2699 203.666 17.7594 204.733C16.3698 205.715 13.5509 204.703 13.1084 208.371C13.0391 208.94 13.488 209.443 14.0594 209.443H26.626C27.1871 209.443 27.628 208.964 27.5794 208.405L27.0024 201.711H21.6256Z" fill="#23264A"/>
<path d="M14.0524 209.502H26.6189C27.18 209.502 27.6209 209.023 27.5723 208.463L27.5692 208.43H13.1013V208.65C13.1538 209.122 13.5558 209.502 14.0524 209.502Z" fill="#23264A"/>
<path d="M37.1027 118.264C40.4087 114.695 43.3446 112.55 45.9089 111.831C48.4715 111.112 52.3951 110.977 57.682 111.427C60.8638 111.603 63.7854 111.328 66.4467 110.605C69.1073 109.881 71.4113 108.455 73.3571 106.325C75.5139 103.963 76.5787 101.546 76.5533 99.0751C76.527 96.6039 75.3595 94.3127 73.0499 92.2029C71.1494 90.4679 69.0229 89.5622 66.6703 89.4842C64.3162 89.4062 62.1308 90.4464 60.1133 92.6056L49.179 82.6192L49.3135 82.3176C53.7369 77.3196 58.8065 75.0283 64.5215 75.4469C70.2358 75.8648 75.7622 78.511 81.1016 83.3864C86.8508 88.6374 90.0311 94.214 90.6439 100.116C91.2559 106.017 89.2758 111.471 84.7044 116.476C81.7279 119.735 78.0176 121.878 73.5736 122.904C69.1295 123.93 64.6147 124.066 60.0297 123.315C57.3612 123.092 55.2268 123.367 53.6271 124.14C52.0242 124.914 50.2519 126.367 48.3068 128.497L37.1027 118.264ZM33.8262 144.506L22.5076 134.167L31.2978 124.543L42.6164 134.88L33.8262 144.506Z" fill="#FBAF49"/>
<path d="M69.7063 89.3743C67.8058 87.6393 65.6801 86.7344 63.3268 86.6564C60.975 86.5784 58.7904 87.617 56.7737 89.773L59.9292 92.6556C61.9467 90.4964 64.1322 89.4562 66.4863 89.5342C68.191 89.5915 69.774 90.0881 71.2407 91.0137C70.8022 90.4558 70.2913 89.9091 69.7063 89.3743Z" fill="#F6921F"/>
<path d="M39.3573 132.004L30.5703 141.626L33.7259 144.508L42.5161 134.882L39.3573 132.004Z" fill="#F6921F"/>
<path d="M90.5093 100.271C89.8965 94.3694 86.7163 88.7928 80.967 83.5418C80.4187 83.0412 79.8687 82.5708 79.3172 82.1172C84.1106 86.9409 86.7935 92.0327 87.3498 97.3928C87.9618 103.295 85.9817 108.747 81.4103 113.753C78.4338 117.013 74.7235 119.155 70.2803 120.181C65.8362 121.206 61.3205 121.344 56.7356 120.593C54.0671 120.368 51.9326 120.644 50.3322 121.417C48.7317 122.191 46.9593 123.642 45.0159 125.77L48.1714 128.652C50.1173 126.522 51.8897 125.069 53.4925 124.295C55.0922 123.522 57.2267 123.248 59.8952 123.471C64.4801 124.222 68.995 124.085 73.439 123.059C77.8831 122.033 81.5926 119.891 84.5699 116.631C89.1412 111.626 91.1213 106.173 90.5093 100.271Z" fill="#F6921F"/>
<path d="M13.4685 115.097L25.3283 128.586L20.3964 132.909L5.99857 117.218C4.72759 115.521 5.6094 113.373 6.76259 111.82L19.1174 95.0835C20.6829 93.0636 23.8042 93.3079 25.037 95.5459C25.7382 96.82 25.5925 98.3927 24.6693 99.5156L13.4685 115.097Z" fill="#FBCAB6"/>
<path d="M18.7502 109.347L10.7502 103.01L22.0816 89.0039L26.7501 93.4177L24.8345 101.104L18.7502 109.347Z" fill="#85ACDB"/>
<path d="M23.6345 127.725L19.7674 132.304C19.3409 132.809 19.4045 133.564 19.9091 133.989L22.7686 136.405L28.1796 129.998L25.3201 127.583C24.8156 127.157 24.0611 127.221 23.6345 127.725Z" fill="#FBCAB6"/>
<path d="M25.7885 137.317C25.4153 137.758 24.7539 137.814 24.3114 137.441L21.1638 134.782L22.516 133.18L25.6644 135.839C26.1069 136.213 26.1618 136.874 25.7885 137.317Z" fill="#FBCAB6"/>
<path d="M27.1331 135.803C26.7598 136.246 26.0985 136.301 25.656 135.927L22.5076 133.268L23.8605 131.668L27.0089 134.325C27.4506 134.699 27.5063 135.361 27.1331 135.803Z" fill="#FBCAB6"/>
<path d="M28.4771 134.124C28.103 134.566 27.4417 134.622 27 134.248L23.8516 131.59L25.2045 129.988L28.3521 132.647C28.7946 133.02 28.8503 133.682 28.4771 134.124Z" fill="#FBCAB6"/>
<path d="M29.82 132.613C29.4468 133.055 28.7854 133.11 28.3429 132.738L25.1953 130.079L26.5483 128.477L29.6959 131.136C30.1384 131.509 30.1933 132.17 29.82 132.613Z" fill="#FBCAB6"/>
<path d="M83.7506 122.818C83.5134 123.346 82.8926 123.582 82.3642 123.343L79.5636 122.083C79.0351 121.846 78.8003 121.225 79.0375 120.697C79.2755 120.169 79.8962 119.933 80.4239 120.171L83.2253 121.432C83.7529 121.671 83.9885 122.29 83.7506 122.818Z" fill="#FBCAB6"/>
<path d="M84.4227 120.802C84.1856 121.33 83.5648 121.566 83.0371 121.328L80.2357 120.066C79.7081 119.828 79.4725 119.208 79.7105 118.681C79.9476 118.153 80.5684 117.917 81.096 118.155L83.8975 119.416C84.4251 119.654 84.6607 120.275 84.4227 120.802Z" fill="#FBCAB6"/>
<path d="M85.4309 118.955C85.1929 119.483 84.5721 119.718 84.0445 119.48L81.2431 118.22C80.7154 117.982 80.4798 117.361 80.7178 116.833C80.9558 116.305 81.5765 116.07 82.1042 116.307L84.9048 117.569C85.4332 117.807 85.668 118.427 85.4309 118.955Z" fill="#FBCAB6"/>
<path d="M86.4382 117.107H86.4374C86.2002 117.635 85.5794 117.87 85.051 117.632L82.2504 116.371C81.7227 116.134 81.4872 115.513 81.7251 114.985C81.9623 114.458 82.583 114.222 83.1107 114.46L85.9121 115.721C86.4398 115.959 86.6753 116.579 86.4382 117.107Z" fill="#FBCAB6"/>
<path d="M18.9545 109.421L21.5076 105.963V99.25L14.781 106.116L18.9545 109.421Z" fill="#699CD3"/>
<path d="M53.1297 107.538L55.3047 105.81L51.3987 101.266V105.373L53.1297 107.538Z" fill="#699CD3"/>
<path d="M252.754 81.304C252.198 81.4329 251.852 81.9876 251.98 82.5439L252.894 86.5025C254.007 86.2455 254.7 85.1352 254.444 84.0226L253.994 82.0784C253.865 81.5221 253.31 81.1759 252.754 81.304Z" fill="#FCCAB8"/>
<path d="M89.4895 99.9606C89.2452 100.34 89.3558 100.845 89.7347 101.088L92.4326 102.823C92.9205 102.065 92.7008 101.055 91.9424 100.567L90.6173 99.7155C90.2376 99.472 89.7331 99.5818 89.4895 99.9606Z" fill="#FBCAB6"/>
<path d="M222.958 108.592C222.826 109.155 222.261 109.504 221.698 109.371L217.688 108.423C217.954 107.297 219.083 106.599 220.21 106.865L222.179 107.331C222.743 107.464 223.091 108.029 222.958 108.592Z" fill="#FBCAB6"/>
</svg>
