<svg width="194" height="160" viewBox="0 0 194 160" fill="none" xmlns="http://www.w3.org/2000/svg">
<path opacity="0.3" fill-rule="evenodd" clip-rule="evenodd" d="M11 5.5C11 8.53757 8.53757 11 5.5 11C2.46243 11 0 8.53757 0 5.5C0 2.46243 2.46243 0 5.5 0C8.53757 0 11 2.46243 11 5.5ZM113 5.5C113 8.53757 110.538 11 107.5 11C104.462 11 102 8.53757 102 5.5C102 2.46243 104.462 0 107.5 0C110.538 0 113 2.46243 113 5.5ZM26.5 11C29.5376 11 32 8.53757 32 5.5C32 2.46243 29.5376 0 26.5 0C23.4624 0 21 2.46243 21 5.5C21 8.53757 23.4624 11 26.5 11ZM134 5.5C134 8.53757 131.538 11 128.5 11C125.462 11 123 8.53757 123 5.5C123 2.46243 125.462 0 128.5 0C131.538 0 134 2.46243 134 5.5ZM46.5 11C49.5376 11 52 8.53757 52 5.5C52 2.46243 49.5376 0 46.5 0C43.4624 0 41 2.46243 41 5.5C41 8.53757 43.4624 11 46.5 11ZM154 5.5C154 8.53757 151.538 11 148.5 11C145.462 11 143 8.53757 143 5.5C143 2.46243 145.462 0 148.5 0C151.538 0 154 2.46243 154 5.5ZM66.5 11C69.5376 11 72 8.53757 72 5.5C72 2.46243 69.5376 0 66.5 0C63.4624 0 61 2.46243 61 5.5C61 8.53757 63.4624 11 66.5 11ZM174 5.5C174 8.53757 171.538 11 168.5 11C165.462 11 163 8.53757 163 5.5C163 2.46243 165.462 0 168.5 0C171.538 0 174 2.46243 174 5.5ZM86.5 11C89.5376 11 92 8.53757 92 5.5C92 2.46243 89.5376 0 86.5 0C83.4624 0 81 2.46243 81 5.5C81 8.53757 83.4624 11 86.5 11ZM194 5.5C194 8.53757 191.538 11 188.5 11C185.462 11 183 8.53757 183 5.5C183 2.46243 185.462 0 188.5 0C191.538 0 194 2.46243 194 5.5ZM11 27.5C11 30.5376 8.53757 33 5.5 33C2.46243 33 0 30.5376 0 27.5C0 24.4624 2.46243 22 5.5 22C8.53757 22 11 24.4624 11 27.5ZM113 27.5C113 30.5376 110.538 33 107.5 33C104.462 33 102 30.5376 102 27.5C102 24.4624 104.462 22 107.5 22C110.538 22 113 24.4624 113 27.5ZM26.5 33C29.5376 33 32 30.5376 32 27.5C32 24.4624 29.5376 22 26.5 22C23.4624 22 21 24.4624 21 27.5C21 30.5376 23.4624 33 26.5 33ZM134 27.5C134 30.5376 131.538 33 128.5 33C125.462 33 123 30.5376 123 27.5C123 24.4624 125.462 22 128.5 22C131.538 22 134 24.4624 134 27.5ZM46.5 33C49.5376 33 52 30.5376 52 27.5C52 24.4624 49.5376 22 46.5 22C43.4624 22 41 24.4624 41 27.5C41 30.5376 43.4624 33 46.5 33ZM154 27.5C154 30.5376 151.538 33 148.5 33C145.462 33 143 30.5376 143 27.5C143 24.4624 145.462 22 148.5 22C151.538 22 154 24.4624 154 27.5ZM66.5 33C69.5376 33 72 30.5376 72 27.5C72 24.4624 69.5376 22 66.5 22C63.4624 22 61 24.4624 61 27.5C61 30.5376 63.4624 33 66.5 33ZM174 27.5C174 30.5376 171.538 33 168.5 33C165.462 33 163 30.5376 163 27.5C163 24.4624 165.462 22 168.5 22C171.538 22 174 24.4624 174 27.5ZM86.5 33C89.5376 33 92 30.5376 92 27.5C92 24.4624 89.5376 22 86.5 22C83.4624 22 81 24.4624 81 27.5C81 30.5376 83.4624 33 86.5 33ZM194 27.5C194 30.5376 191.538 33 188.5 33C185.462 33 183 30.5376 183 27.5C183 24.4624 185.462 22 188.5 22C191.538 22 194 24.4624 194 27.5ZM5.5 54C8.53757 54 11 51.5376 11 48.5C11 45.4624 8.53757 43 5.5 43C2.46243 43 0 45.4624 0 48.5C0 51.5376 2.46243 54 5.5 54ZM107.5 54C110.538 54 113 51.5376 113 48.5C113 45.4624 110.538 43 107.5 43C104.462 43 102 45.4624 102 48.5C102 51.5376 104.462 54 107.5 54ZM32 48.5C32 51.5376 29.5376 54 26.5 54C23.4624 54 21 51.5376 21 48.5C21 45.4624 23.4624 43 26.5 43C29.5376 43 32 45.4624 32 48.5ZM128.5 54C131.538 54 134 51.5376 134 48.5C134 45.4624 131.538 43 128.5 43C125.462 43 123 45.4624 123 48.5C123 51.5376 125.462 54 128.5 54ZM52 48.5C52 51.5376 49.5376 54 46.5 54C43.4624 54 41 51.5376 41 48.5C41 45.4624 43.4624 43 46.5 43C49.5376 43 52 45.4624 52 48.5ZM148.5 54C151.538 54 154 51.5376 154 48.5C154 45.4624 151.538 43 148.5 43C145.462 43 143 45.4624 143 48.5C143 51.5376 145.462 54 148.5 54ZM72 48.5C72 51.5376 69.5376 54 66.5 54C63.4624 54 61 51.5376 61 48.5C61 45.4624 63.4624 43 66.5 43C69.5376 43 72 45.4624 72 48.5ZM168.5 54C171.538 54 174 51.5376 174 48.5C174 45.4624 171.538 43 168.5 43C165.462 43 163 45.4624 163 48.5C163 51.5376 165.462 54 168.5 54ZM92 48.5C92 51.5376 89.5376 54 86.5 54C83.4624 54 81 51.5376 81 48.5C81 45.4624 83.4624 43 86.5 43C89.5376 43 92 45.4624 92 48.5ZM188.5 54C191.538 54 194 51.5376 194 48.5C194 45.4624 191.538 43 188.5 43C185.462 43 183 45.4624 183 48.5C183 51.5376 185.462 54 188.5 54ZM11 69.5C11 72.5376 8.53757 75 5.5 75C2.46243 75 0 72.5376 0 69.5C0 66.4624 2.46243 64 5.5 64C8.53757 64 11 66.4624 11 69.5ZM113 69.5C113 72.5376 110.538 75 107.5 75C104.462 75 102 72.5376 102 69.5C102 66.4624 104.462 64 107.5 64C110.538 64 113 66.4624 113 69.5ZM26.5 75C29.5376 75 32 72.5376 32 69.5C32 66.4624 29.5376 64 26.5 64C23.4624 64 21 66.4624 21 69.5C21 72.5376 23.4624 75 26.5 75ZM134 69.5C134 72.5376 131.538 75 128.5 75C125.462 75 123 72.5376 123 69.5C123 66.4624 125.462 64 128.5 64C131.538 64 134 66.4624 134 69.5ZM46.5 75C49.5376 75 52 72.5376 52 69.5C52 66.4624 49.5376 64 46.5 64C43.4624 64 41 66.4624 41 69.5C41 72.5376 43.4624 75 46.5 75ZM154 69.5C154 72.5376 151.538 75 148.5 75C145.462 75 143 72.5376 143 69.5C143 66.4624 145.462 64 148.5 64C151.538 64 154 66.4624 154 69.5ZM66.5 75C69.5376 75 72 72.5376 72 69.5C72 66.4624 69.5376 64 66.5 64C63.4624 64 61 66.4624 61 69.5C61 72.5376 63.4624 75 66.5 75ZM174 69.5C174 72.5376 171.538 75 168.5 75C165.462 75 163 72.5376 163 69.5C163 66.4624 165.462 64 168.5 64C171.538 64 174 66.4624 174 69.5ZM86.5 75C89.5376 75 92 72.5376 92 69.5C92 66.4624 89.5376 64 86.5 64C83.4624 64 81 66.4624 81 69.5C81 72.5376 83.4624 75 86.5 75ZM194 69.5C194 72.5376 191.538 75 188.5 75C185.462 75 183 72.5376 183 69.5C183 66.4624 185.462 64 188.5 64C191.538 64 194 66.4624 194 69.5ZM5.5 97C8.53757 97 11 94.5376 11 91.5C11 88.4624 8.53757 86 5.5 86C2.46243 86 0 88.4624 0 91.5C0 94.5376 2.46243 97 5.5 97ZM107.5 97C110.538 97 113 94.5376 113 91.5C113 88.4624 110.538 86 107.5 86C104.462 86 102 88.4624 102 91.5C102 94.5376 104.462 97 107.5 97ZM32 91.5C32 94.5376 29.5376 97 26.5 97C23.4624 97 21 94.5376 21 91.5C21 88.4624 23.4624 86 26.5 86C29.5376 86 32 88.4624 32 91.5ZM128.5 97C131.538 97 134 94.5376 134 91.5C134 88.4624 131.538 86 128.5 86C125.462 86 123 88.4624 123 91.5C123 94.5376 125.462 97 128.5 97ZM52 91.5C52 94.5376 49.5376 97 46.5 97C43.4624 97 41 94.5376 41 91.5C41 88.4624 43.4624 86 46.5 86C49.5376 86 52 88.4624 52 91.5ZM148.5 97C151.538 97 154 94.5376 154 91.5C154 88.4624 151.538 86 148.5 86C145.462 86 143 88.4624 143 91.5C143 94.5376 145.462 97 148.5 97ZM72 91.5C72 94.5376 69.5376 97 66.5 97C63.4624 97 61 94.5376 61 91.5C61 88.4624 63.4624 86 66.5 86C69.5376 86 72 88.4624 72 91.5ZM168.5 97C171.538 97 174 94.5376 174 91.5C174 88.4624 171.538 86 168.5 86C165.462 86 163 88.4624 163 91.5C163 94.5376 165.462 97 168.5 97ZM92 91.5C92 94.5376 89.5376 97 86.5 97C83.4624 97 81 94.5376 81 91.5C81 88.4624 83.4624 86 86.5 86C89.5376 86 92 88.4624 92 91.5ZM188.5 97C191.538 97 194 94.5376 194 91.5C194 88.4624 191.538 86 188.5 86C185.462 86 183 88.4624 183 91.5C183 94.5376 185.462 97 188.5 97ZM11 112.5C11 115.538 8.53757 118 5.5 118C2.46243 118 0 115.538 0 112.5C0 109.462 2.46243 107 5.5 107C8.53757 107 11 109.462 11 112.5ZM113 112.5C113 115.538 110.538 118 107.5 118C104.462 118 102 115.538 102 112.5C102 109.462 104.462 107 107.5 107C110.538 107 113 109.462 113 112.5ZM26.5 118C29.5376 118 32 115.538 32 112.5C32 109.462 29.5376 107 26.5 107C23.4624 107 21 109.462 21 112.5C21 115.538 23.4624 118 26.5 118ZM134 112.5C134 115.538 131.538 118 128.5 118C125.462 118 123 115.538 123 112.5C123 109.462 125.462 107 128.5 107C131.538 107 134 109.462 134 112.5ZM46.5 118C49.5376 118 52 115.538 52 112.5C52 109.462 49.5376 107 46.5 107C43.4624 107 41 109.462 41 112.5C41 115.538 43.4624 118 46.5 118ZM154 112.5C154 115.538 151.538 118 148.5 118C145.462 118 143 115.538 143 112.5C143 109.462 145.462 107 148.5 107C151.538 107 154 109.462 154 112.5ZM66.5 118C69.5376 118 72 115.538 72 112.5C72 109.462 69.5376 107 66.5 107C63.4624 107 61 109.462 61 112.5C61 115.538 63.4624 118 66.5 118ZM174 112.5C174 115.538 171.538 118 168.5 118C165.462 118 163 115.538 163 112.5C163 109.462 165.462 107 168.5 107C171.538 107 174 109.462 174 112.5ZM86.5 118C89.5376 118 92 115.538 92 112.5C92 109.462 89.5376 107 86.5 107C83.4624 107 81 109.462 81 112.5C81 115.538 83.4624 118 86.5 118ZM194 112.5C194 115.538 191.538 118 188.5 118C185.462 118 183 115.538 183 112.5C183 109.462 185.462 107 188.5 107C191.538 107 194 109.462 194 112.5ZM5.5 139C8.53757 139 11 136.538 11 133.5C11 130.462 8.53757 128 5.5 128C2.46243 128 0 130.462 0 133.5C0 136.538 2.46243 139 5.5 139ZM107.5 139C110.538 139 113 136.538 113 133.5C113 130.462 110.538 128 107.5 128C104.462 128 102 130.462 102 133.5C102 136.538 104.462 139 107.5 139ZM32 133.5C32 136.538 29.5376 139 26.5 139C23.4624 139 21 136.538 21 133.5C21 130.462 23.4624 128 26.5 128C29.5376 128 32 130.462 32 133.5ZM128.5 139C131.538 139 134 136.538 134 133.5C134 130.462 131.538 128 128.5 128C125.462 128 123 130.462 123 133.5C123 136.538 125.462 139 128.5 139ZM52 133.5C52 136.538 49.5376 139 46.5 139C43.4624 139 41 136.538 41 133.5C41 130.462 43.4624 128 46.5 128C49.5376 128 52 130.462 52 133.5ZM148.5 139C151.538 139 154 136.538 154 133.5C154 130.462 151.538 128 148.5 128C145.462 128 143 130.462 143 133.5C143 136.538 145.462 139 148.5 139ZM72 133.5C72 136.538 69.5376 139 66.5 139C63.4624 139 61 136.538 61 133.5C61 130.462 63.4624 128 66.5 128C69.5376 128 72 130.462 72 133.5ZM168.5 139C171.538 139 174 136.538 174 133.5C174 130.462 171.538 128 168.5 128C165.462 128 163 130.462 163 133.5C163 136.538 165.462 139 168.5 139ZM92 133.5C92 136.538 89.5376 139 86.5 139C83.4624 139 81 136.538 81 133.5C81 130.462 83.4624 128 86.5 128C89.5376 128 92 130.462 92 133.5ZM188.5 139C191.538 139 194 136.538 194 133.5C194 130.462 191.538 128 188.5 128C185.462 128 183 130.462 183 133.5C183 136.538 185.462 139 188.5 139ZM11 154.5C11 157.538 8.53757 160 5.5 160C2.46243 160 0 157.538 0 154.5C0 151.462 2.46243 149 5.5 149C8.53757 149 11 151.462 11 154.5ZM113 154.5C113 157.538 110.538 160 107.5 160C104.462 160 102 157.538 102 154.5C102 151.462 104.462 149 107.5 149C110.538 149 113 151.462 113 154.5ZM26.5 160C29.5376 160 32 157.538 32 154.5C32 151.462 29.5376 149 26.5 149C23.4624 149 21 151.462 21 154.5C21 157.538 23.4624 160 26.5 160ZM134 154.5C134 157.538 131.538 160 128.5 160C125.462 160 123 157.538 123 154.5C123 151.462 125.462 149 128.5 149C131.538 149 134 151.462 134 154.5ZM46.5 160C49.5376 160 52 157.538 52 154.5C52 151.462 49.5376 149 46.5 149C43.4624 149 41 151.462 41 154.5C41 157.538 43.4624 160 46.5 160ZM154 154.5C154 157.538 151.538 160 148.5 160C145.462 160 143 157.538 143 154.5C143 151.462 145.462 149 148.5 149C151.538 149 154 151.462 154 154.5ZM66.5 160C69.5376 160 72 157.538 72 154.5C72 151.462 69.5376 149 66.5 149C63.4624 149 61 151.462 61 154.5C61 157.538 63.4624 160 66.5 160ZM174 154.5C174 157.538 171.538 160 168.5 160C165.462 160 163 157.538 163 154.5C163 151.462 165.462 149 168.5 149C171.538 149 174 151.462 174 154.5ZM86.5 160C89.5376 160 92 157.538 92 154.5C92 151.462 89.5376 149 86.5 149C83.4624 149 81 151.462 81 154.5C81 157.538 83.4624 160 86.5 160ZM194 154.5C194 157.538 191.538 160 188.5 160C185.462 160 183 157.538 183 154.5C183 151.462 185.462 149 188.5 149C191.538 149 194 151.462 194 154.5Z" fill="#B8B8B8"/>
</svg>
