<svg width="37" height="42" viewBox="0 0 37 42" fill="none" xmlns="http://www.w3.org/2000/svg">
<path d="M35.4376 0H1.3125C0.588001 0 0 0.588001 0 1.3125V22.3125C0 23.0371 0.588001 23.6251 1.3125 23.6251H35.4376C36.1621 23.6251 36.7501 23.0371 36.7501 22.3125V1.3125C36.7501 0.588001 36.1621 0 35.4376 0ZM26.3839 21H10.3661C9.78602 16.9917 6.63339 13.8364 2.62501 13.2589V10.3661C6.63339 9.78865 9.78602 6.63339 10.3661 2.62501H26.3839C26.9641 6.63339 30.1167 9.78865 34.1251 10.3661V13.2589C30.1167 13.8364 26.9641 16.9917 26.3839 21ZM34.1251 7.74114C31.5578 7.21877 29.5313 5.19489 29.0089 2.62501H34.1251V7.74114ZM7.74114 2.62501C7.21877 5.19489 5.19226 7.21877 2.62501 7.74114V2.62501H7.74114ZM2.62501 15.8839C5.19226 16.4063 7.21877 18.4302 7.74114 21H2.62501V15.8839ZM29.0089 21C29.5313 18.4302 31.5578 16.4063 34.1251 15.8839V21H29.0089Z" fill="#F36F21"/>
<path d="M18.375 7.875C16.2041 7.875 14.4375 9.64163 14.4375 11.8125C14.4375 13.9834 16.2041 15.75 18.375 15.75C20.5459 15.75 22.3125 13.9834 22.3125 11.8125C22.3125 9.64163 20.5459 7.875 18.375 7.875ZM18.375 13.125C17.6505 13.125 17.0625 12.5344 17.0625 11.8125C17.0625 11.0906 17.6505 10.5 18.375 10.5C19.0995 10.5 19.6875 11.0906 19.6875 11.8125C19.6875 12.5344 19.0995 13.125 18.375 13.125Z" fill="#F36F21"/>
<path d="M27.5632 34.1252H9.73154L12.7398 31.117C13.2517 30.6051 13.2517 29.773 12.7398 29.2611C12.2279 28.7492 11.3958 28.7492 10.8839 29.2611L5.63391 34.5111C5.12203 35.023 5.12203 35.8551 5.63391 36.367L10.8839 41.617C11.1412 41.8716 11.4772 42.0003 11.8132 42.0003C12.1492 42.0003 12.4852 41.8716 12.7424 41.617C13.2543 41.1051 13.2543 40.273 12.7424 39.7611L9.73154 36.7502H27.5632C28.2877 36.7502 28.8757 36.1622 28.8757 35.4377C28.8757 34.7132 28.2877 34.1252 27.5632 34.1252Z" fill="#F36F21"/>
</svg>
