<svg width="42" height="42" viewBox="0 0 42 42" fill="none" xmlns="http://www.w3.org/2000/svg">
<path d="M41.8658 20.5876L39.4661 17.2176C40.0335 15.8249 40.4715 14.4147 39.9314 13.1161C39.3942 11.8288 38.0996 11.1512 36.7236 10.5756L36.0452 6.53632C35.9949 6.23795 35.7607 6.00367 35.4623 5.95343L31.4221 5.27418C30.8407 3.88778 30.1466 2.58789 28.8115 2.03852C27.4888 1.49199 26.0874 1.91179 24.7059 2.48053L21.4111 0.132722C21.1647 -0.0442408 20.8334 -0.0442408 20.587 0.132722L17.2174 2.53293C15.8247 1.96449 14.4131 1.52621 13.1153 2.06811C11.8279 2.60431 11.1502 3.89918 10.5748 5.27418L6.53468 5.95264C6.2363 6.00298 6.00202 6.23716 5.95178 6.53554L5.27323 10.5774C3.88613 11.1587 2.58634 11.8528 2.03697 13.1873C1.49045 14.513 1.91034 15.9126 2.47918 17.2934L0.132059 20.5876C-0.0440195 20.834 -0.0440195 21.1653 0.132059 21.4116L2.53217 24.7808C1.96402 26.1741 1.52545 27.585 2.06656 28.884C2.60226 30.1712 3.89773 30.8483 5.27332 31.4235L5.95188 35.4646C6.00221 35.7629 6.2364 35.9972 6.53478 36.0475L10.5757 36.7259C11.1573 38.1124 11.8519 39.412 13.1865 39.9615C13.6228 40.1402 14.0679 40.2165 14.5172 40.2165C15.4324 40.2165 16.3665 39.9024 17.2927 39.5209L20.5868 41.8682C20.71 41.9549 20.854 42 20.9988 42C21.1438 42 21.2877 41.9549 21.4109 41.8682L24.7801 39.467C26.1724 40.0351 27.5822 40.472 28.8824 39.9319C30.1703 39.3962 30.8475 38.101 31.4228 36.7259L35.4622 36.0474C35.7606 35.997 35.9949 35.7628 36.0451 35.4645L36.7237 31.4232C38.1102 30.8414 39.41 30.147 39.9608 28.8118C40.5115 27.4745 40.0771 26.0593 39.5201 24.706L41.8658 21.4114C42.041 21.1654 42.041 20.834 41.8658 20.5876ZM35.1751 9.93981C34.3865 9.6082 33.6486 9.24435 33.1781 8.77451C32.7261 8.32454 32.3837 7.61541 32.055 6.82222L34.7265 7.27121L35.1751 9.93981ZM20.9988 1.58402L23.174 3.13362C22.369 3.47152 21.6139 3.74169 20.9668 3.74316C20.9642 3.74316 20.9625 3.74316 20.9607 3.74316C20.3066 3.74316 19.5416 3.48902 18.7626 3.17668L20.9988 1.58402ZM9.93876 6.82222C9.60695 7.61098 9.24319 8.3498 8.77365 8.82131C8.32299 9.27276 7.61376 9.61489 6.82087 9.94404L7.26947 7.27033L9.93876 6.82222ZM3.13256 18.8248C3.47076 19.63 3.74102 20.3856 3.7424 21.0326C3.74368 21.6874 3.48895 22.4546 3.17572 23.2356L1.58325 20.9996L3.13256 18.8248ZM6.82146 32.0601C7.60983 32.392 8.34855 32.7559 8.81966 33.2258C9.27092 33.6758 9.61374 34.3852 9.94259 35.1786L7.26947 34.73L6.82146 32.0601ZM20.9988 40.4162L18.8245 38.8665C19.6291 38.5293 20.3842 38.2594 21.031 38.2579C21.0328 38.2579 21.0344 38.2579 21.0362 38.2579C21.6897 38.2579 22.4547 38.5116 23.2335 38.8233L20.9988 40.4162ZM32.0584 35.178C32.3903 34.3887 32.7547 33.6503 33.2241 33.1789C33.674 32.7277 34.3827 32.3855 35.1757 32.0569L34.7266 34.73L32.0584 35.178ZM38.6458 28.2707C38.2156 29.3152 36.7668 29.8903 35.365 30.4472C34.207 30.9069 33.008 31.3832 32.2178 32.176C31.3885 33.007 30.8967 34.2406 30.4205 35.4333C29.8496 36.8629 29.3101 38.2144 28.3359 38.6204C27.4856 38.9735 26.3504 38.5769 25.1326 38.071C25.0361 38.0011 24.9286 37.9544 24.8126 37.9392C24.7426 37.9096 24.6754 37.8834 24.605 37.8536C23.4261 37.3539 22.2073 36.8351 21.0362 36.8351C21.0336 36.8351 21.0301 36.8351 21.0276 36.8351C19.9077 36.8386 18.7261 37.3538 17.5829 37.8518C16.2019 38.4539 14.7732 39.0819 13.7278 38.6464C12.6834 38.2178 12.1082 36.7692 11.5523 35.3673C11.0917 34.2084 10.6162 33.0096 9.82344 32.2193C8.99151 31.39 7.75798 30.8972 6.56525 30.4219C5.1348 29.8502 3.78418 29.3116 3.37815 28.3374C2.97222 27.3632 3.54214 26.0239 4.1441 24.6064C4.64638 23.4249 5.16597 22.2027 5.16341 21.029C5.16085 19.9091 4.6455 18.7267 4.14676 17.5834C3.5439 16.2015 2.92021 14.7729 3.35043 13.7284C3.78064 12.6848 5.23026 12.1097 6.63122 11.5528C7.79102 11.0931 8.98984 10.6168 9.78008 9.824C10.6085 8.99296 11.1003 7.76032 11.5766 6.56837C12.1475 5.13704 12.687 3.78553 13.6621 3.3796C13.891 3.28414 14.1392 3.24344 14.4046 3.24344C15.2686 3.24344 16.307 3.68407 17.3913 4.14555C18.5701 4.64606 19.7889 5.16398 20.96 5.16398C20.9635 5.16398 20.967 5.16398 20.9704 5.16398C22.0894 5.16142 23.2718 4.64606 24.4151 4.14732C25.797 3.54526 27.2257 2.92421 28.2702 3.35188C29.3146 3.78298 29.8898 5.23171 30.4457 6.63267C30.9054 7.79158 31.3818 8.99041 32.1737 9.78074C33.0056 10.61 34.2391 11.1019 35.431 11.5781C36.8623 12.1489 38.2138 12.6884 38.6197 13.6626C39.0257 14.6368 38.455 15.9753 37.8529 17.3927C37.3497 18.575 36.831 19.7973 36.8328 20.9719C36.8362 22.0909 37.3533 23.2733 37.8512 24.4157L37.9967 24.7521C38.0134 24.8525 38.0565 24.9462 38.1148 25.032C38.598 26.1758 39.0222 27.3591 38.6458 28.2707ZM38.865 23.1745C38.5267 22.3698 38.2569 21.6145 38.2554 20.9676C38.2528 20.3128 38.5081 19.5455 38.8219 18.7644L40.4136 20.9996L38.865 23.1745Z" fill="#F36F21"/>
<path d="M26.4873 11.0195C26.142 10.8374 25.7109 10.9719 25.5279 11.3179L15.7827 29.8461C15.5997 30.1931 15.7333 30.6225 16.0811 30.8056C16.1861 30.8611 16.2997 30.8871 16.4107 30.8871C16.6666 30.8871 16.913 30.7491 17.0405 30.5071L26.7857 11.9789C26.9687 11.6319 26.8351 11.2026 26.4873 11.0195Z" fill="#F36F21"/>
<path d="M30.0589 20.6386C27.7203 19.4068 24.8186 20.3098 23.5903 22.6485C22.9943 23.7805 22.8754 25.0765 23.2554 26.2979C23.6345 27.5202 24.4672 28.5213 25.6002 29.1164C26.3089 29.4894 27.0705 29.6663 27.8217 29.6663C29.5446 29.6663 31.2118 28.7355 32.068 27.1073C33.2972 24.7703 32.3958 21.8678 30.0589 20.6386ZM30.8101 26.4463C30.3911 27.2417 29.6876 27.8273 28.828 28.0945C27.9692 28.3591 27.0575 28.2767 26.2611 27.8585C25.4648 27.4395 24.8792 26.736 24.612 25.8764C24.3457 25.0176 24.429 24.1058 24.848 23.3095C25.45 22.1645 26.6237 21.5095 27.8355 21.5095C28.3629 21.5095 28.899 21.6345 29.3978 21.8964C31.0409 22.7612 31.675 24.8015 30.8101 26.4463Z" fill="#F36F21"/>
<path d="M18.5466 19.9961C19.7758 17.6583 18.8745 14.7566 16.5367 13.5274C15.4037 12.9305 14.1069 12.8117 12.8872 13.1925C11.665 13.5716 10.6639 14.4043 10.0688 15.5373C9.4728 16.6693 9.35394 17.9653 9.73392 19.1867C10.113 20.409 10.9457 21.4101 12.0787 22.0052C12.7874 22.3782 13.549 22.5551 14.3003 22.5551C16.0231 22.555 17.6904 21.6243 18.5466 19.9961ZM17.2888 19.335C16.8698 20.1304 16.1662 20.716 15.3066 20.9832C14.4478 21.2487 13.5361 21.1645 12.7397 20.7473C11.9434 20.3282 11.3579 19.6247 11.0906 18.7651C10.8243 17.9063 10.9076 16.9946 11.3266 16.1982C11.7456 15.4019 12.4491 14.8163 13.3088 14.5491C13.6384 14.4468 13.9758 14.3965 14.3116 14.3965C14.8502 14.3965 15.3846 14.5274 15.8756 14.7851C16.672 15.2041 17.2575 15.9076 17.5247 16.7673C17.791 17.6261 17.7078 18.5378 17.2888 19.335Z" fill="#F36F21"/>
</svg>
