<svg width="49" height="44" viewBox="0 0 49 44" fill="none" xmlns="http://www.w3.org/2000/svg">
<path d="M42.4878 10.5817H38.0281V9.19513C38.0281 7.69863 36.8136 6.48416 35.3171 6.48416C33.8206 6.48416 32.6061 7.69863 32.6061 9.19513V11.2439C32.6061 11.6136 32.8986 11.9061 33.2683 11.9061C33.638 11.9061 33.9305 11.6136 33.9305 11.2439V9.19513C33.9305 8.42773 34.5497 7.80855 35.3171 7.80855C36.0845 7.80855 36.7037 8.42773 36.7037 9.19513V10.5817H36.3415C35.9718 10.5817 35.6793 10.8742 35.6793 11.2439V16.3659C35.6793 16.7355 35.9718 17.0281 36.3415 17.0281H42.4878C42.8575 17.0281 43.15 16.7355 43.15 16.3659V11.2439C43.15 10.8742 42.8575 10.5817 42.4878 10.5817ZM41.8256 15.7037H37.0037V11.9061H41.8256V15.7037Z" fill="#F36F21" stroke="#F36F21" stroke-width="0.3"/>
<path d="M21.6104 17.9126C22.1285 18.0933 22.639 18.309 23.1274 18.5803C23.1276 18.5804 23.1278 18.5805 23.128 18.5806L23.0551 18.7117C26.5073 20.5863 28.6585 24.2024 28.6585 28.1463V42.4878C28.6585 42.7746 28.4332 43 28.1463 43H1.5122C1.22537 43 1 42.7746 1 42.4878V28.1463C1 24.3041 3.0417 20.7828 6.33896 18.8515L21.6104 17.9126ZM21.6104 17.9126C23.5097 16.1021 24.711 13.554 24.711 10.7317C24.711 5.28106 20.2799 0.85 14.8293 0.85C9.37862 0.85 4.94756 5.28106 4.94756 10.7317C4.94756 13.5535 6.14839 16.1015 8.05702 17.9029C7.55127 18.0793 7.05275 18.2891 6.57499 18.5515M21.6104 17.9126L6.57499 18.5515M6.1904 18.765L6.03479 18.8515H6.04782C2.83168 20.8348 0.85 24.3348 0.85 28.1463L6.1904 18.765ZM6.1904 18.765C6.30257 18.6982 6.41619 18.6331 6.53123 18.57L6.56495 18.5515H6.57499M6.1904 18.765L6.57499 18.5515M15.4087 33.5914L15.4086 33.5913C15.29 33.789 15.0677 33.9202 14.8293 33.9202C14.5956 33.9202 14.369 33.803 14.2479 33.5879L15.4087 33.5914ZM15.4087 33.5914L15.4106 33.5879L23.0369 20.0796C25.7841 21.8284 27.4841 24.8509 27.4841 28.1463V41.8256H2.17439V28.1463C2.17439 24.8612 3.87424 21.8387 6.62183 20.08L14.2478 33.5877L15.4087 33.5914ZM6.27195 10.7317C6.27195 6.01016 10.1077 2.17439 14.8293 2.17439C19.5508 2.17439 23.3866 6.01016 23.3866 10.7317C23.3866 15.4533 19.5508 19.289 14.8293 19.289C10.1077 19.289 6.27195 15.4533 6.27195 10.7317ZM20.3791 18.9047C20.8977 19.0409 21.3934 19.2236 21.8731 19.4527L17.17 27.7914L16.5951 22.6724H16.878C17.2477 22.6724 17.5402 22.3799 17.5402 22.0102C17.5402 21.6406 17.2477 21.348 16.878 21.348H12.7805C12.4108 21.348 12.1183 21.6406 12.1183 22.0102C12.1183 22.3799 12.4108 22.6724 12.7805 22.6724H13.0634L12.4886 27.7914L7.78544 19.4528C8.26579 19.224 8.76831 19.0413 9.27945 18.905C10.8602 19.9837 12.7739 20.6134 14.8293 20.6134C16.8852 20.6134 18.789 19.9834 20.3791 18.9047ZM16.0475 29.7539L14.8293 31.9177L13.611 29.7539L14.4001 22.6622H15.2584L16.0475 29.7539Z" fill="#F36F21" stroke="#F36F21" stroke-width="0.3"/>
<path d="M14.8293 35.6793C13.8962 35.6793 13.1427 36.4328 13.1427 37.3659C13.1427 38.299 13.8962 39.0525 14.8293 39.0525C15.7624 39.0525 16.5159 38.299 16.5159 37.3659C16.5159 36.4328 15.7624 35.6793 14.8293 35.6793ZM14.8293 37.7281C14.6253 37.7281 14.4671 37.5699 14.4671 37.3659C14.4671 37.1619 14.6253 37.0037 14.8293 37.0037C15.0333 37.0037 15.1915 37.1619 15.1915 37.3659C15.1915 37.5699 15.0333 37.7281 14.8293 37.7281Z" fill="#F36F21" stroke="#F36F21" stroke-width="0.3"/>
<path d="M38.3902 2.38656C32.9395 2.38656 28.5084 6.81762 28.5084 12.2683C28.5084 17.7189 32.9395 22.15 38.3902 22.15C43.8408 22.15 48.2719 17.7189 48.2719 12.2683C48.2719 6.81762 43.8408 2.38656 38.3902 2.38656ZM38.3902 20.8256C33.6686 20.8256 29.8328 16.9898 29.8328 12.2683C29.8328 7.54672 33.6686 3.71095 38.3902 3.71095C43.1117 3.71095 46.9475 7.54672 46.9475 12.2683C46.9475 16.9898 43.1117 20.8256 38.3902 20.8256Z" fill="#F36F21" stroke="#F36F21" stroke-width="0.3"/>
</svg>
